<svg width="67" height="67" viewBox="0 0 67 67" fill="none" xmlns="http://www.w3.org/2000/svg">
<path fill-rule="evenodd" clip-rule="evenodd" d="M35.7955 30.2036L60.4578 15.9648L61.7078 18.1299L37.0455 32.3687C35.3019 33.3753 33.0724 32.7779 32.0657 31.0343L27.9203 23.8542C27.604 23.3064 26.9034 23.1187 26.3556 23.435C25.8077 23.7513 25.62 24.4518 25.9363 24.9997L31.1084 33.958C32.1807 35.8152 34.5555 36.4516 36.4128 35.3793L62.8532 20.1139L64.1032 22.279L37.6628 37.5444C34.6098 39.307 30.7059 38.261 28.9433 35.208L23.7712 26.2497L24.8538 25.6247L23.7712 26.2497C22.7646 24.5061 23.362 22.2766 25.1056 21.2699C26.8492 20.2632 29.0787 20.8606 30.0854 22.6042L34.2308 29.7843C34.5471 30.3322 35.2476 30.5199 35.7955 30.2036Z" fill="#B4804B"/>
<path fill-rule="evenodd" clip-rule="evenodd" d="M32.1829 6.03101C31.8977 3.75206 29.9765 2.1875 27.9153 2.56063C13.4619 5.17699 2.5 17.8264 2.5 33.0335C2.5 50.1374 16.3654 64.0028 33.4693 64.0028C48.7114 64.0028 61.3349 53.547 63.9432 39.2432C64.2844 37.3717 63.012 35.6128 61.0564 35.1105C59.9185 48.252 49.5971 59.0984 36.5059 60.5578C35.1614 60.7077 34.0184 59.9753 33.4694 58.9027C32.9204 59.9752 31.7779 60.707 30.4354 60.5606C17.5501 59.1558 7.32251 48.9153 5.93755 36.024C5.7933 34.6813 6.55421 33.5432 7.64976 33.0336C6.55422 32.5239 5.7933 31.3859 5.93755 30.0432C7.31285 17.2417 17.4079 7.05438 30.1663 5.53722C30.9268 5.44678 31.6243 5.64521 32.1829 6.03101ZM58.4208 36.185H55.3165C54.2901 36.185 53.458 35.353 53.458 34.3265C53.458 33.3001 54.29 32.468 55.3165 32.468H59.9107C63.7157 32.4679 67.1433 35.6298 66.4026 39.6917C63.5697 55.227 49.8745 66.5028 33.4693 66.5028C14.9847 66.5028 0 51.5181 0 33.0335C0 16.596 11.8482 2.92848 27.47 0.100607C31.5455 -0.637143 34.7193 2.79815 34.7193 6.61947V11.2212C34.7193 12.2498 33.8854 13.0837 32.8568 13.0837C31.8348 13.0837 31.0063 12.2552 31.0063 11.2332V8.56728C31.0063 8.19253 30.711 7.99005 30.4615 8.01972C29.7584 8.10333 29.0641 8.21592 28.38 8.35625L28.4251 8.52451L26.0103 9.17156L25.9591 8.98039C24.6437 9.39065 23.3747 9.90587 22.1617 10.5162L22.2554 10.6786L20.0904 11.9286L19.9871 11.7497C18.8295 12.4845 17.7359 13.3112 16.7167 14.2194L16.8534 14.3562L15.0857 16.124L14.9344 15.9727C14.0088 16.9778 13.1638 18.0583 12.4099 19.2041L12.5873 19.3065L11.3373 21.4716L11.1409 21.3582C10.5093 22.5635 9.97238 23.8264 9.54018 25.1367L9.7478 25.1924L9.10075 27.6072L8.87681 27.5472C8.6761 28.4509 8.52395 29.3729 8.42325 30.3102C8.39822 30.5431 8.58846 30.8199 8.94193 30.8199H11.3057C12.5283 30.8199 13.5194 31.811 13.5194 33.0336C13.5194 34.2562 12.5283 35.2473 11.3057 35.2473H8.94193C8.58848 35.2473 8.39822 35.524 8.42325 35.757C8.52395 36.6943 8.67609 37.6163 8.8768 38.52L9.10071 38.46L9.74776 40.8748L9.54016 40.9304C9.97237 42.2408 10.5092 43.5036 11.1409 44.709L11.3373 44.5955L12.5873 46.7606L12.4099 46.8631C13.1638 48.0087 14.0087 49.0893 14.9343 50.0943L15.0856 49.943L16.8534 51.7108L16.7165 51.8476C17.7358 52.7559 18.8294 53.5826 19.9869 54.3174L20.0903 54.1383L22.2554 55.3883L22.1615 55.5508C23.3746 56.1612 24.6437 56.6765 25.959 57.0867L26.0103 56.8952L28.4251 57.5423L28.38 57.7109C29.1434 57.8675 29.9194 57.9896 30.7064 58.0754C30.9925 58.1065 31.3181 57.8728 31.3181 57.4588V55.1347C31.3181 53.9466 32.2812 52.9835 33.4693 52.9835C34.6574 52.9835 35.6205 53.9466 35.6205 55.1347V57.4588C35.6205 57.874 35.9462 58.1047 36.2289 58.0732C37.1647 57.9689 38.0853 57.8115 38.9878 57.6042L38.9474 57.4537L41.3623 56.8066L41.3928 56.9205C42.6873 56.48 43.9355 55.9346 45.1278 55.2948L45.083 55.2172L47.2481 53.9672L47.2697 54.0045C48.3937 53.2492 49.4554 52.4052 50.4449 51.4832L50.4306 51.4689L52.0462 49.8533C53.0002 48.7924 53.8681 47.6515 54.6382 46.4428L55.7709 44.481C56.4234 43.227 56.9759 41.9139 57.4175 40.5536L57.3828 40.5443L58.0299 38.1295L58.0718 38.1407C58.2129 37.4969 58.3295 36.8446 58.4208 36.185Z" fill="#B4804B"/>
</svg>
