<svg width="72" height="66" viewBox="0 0 72 66" fill="none" xmlns="http://www.w3.org/2000/svg">
<path fill-rule="evenodd" clip-rule="evenodd" d="M26.4025 2.99418C26.4025 1.34054 27.743 0 29.3967 0H36.6034C38.257 0 39.5975 1.34054 39.5975 2.99418V5.00399H37.5975V2.99418C37.5975 2.44511 37.1524 2 36.6034 2H29.3967C28.8476 2 28.4025 2.44511 28.4025 2.99418V3.76472C28.4025 6.14035 26.7367 8.06969 24.6253 8.80026C23.6599 9.13429 22.7207 9.52448 21.8116 9.96697C19.8021 10.945 17.26 10.7581 15.5803 9.07843L15.0336 8.53172C14.6454 8.14346 14.0159 8.14346 13.6276 8.53172L8.53173 13.6276C8.14348 14.0159 8.14348 14.6454 8.53173 15.0336L9.07845 15.5803C10.7581 17.26 10.945 19.8021 9.96698 21.8115C9.5245 22.7207 9.1343 23.6599 8.80028 24.6252C8.06971 26.7367 6.14036 28.4024 3.76474 28.4024H2.99418C2.44511 28.4024 2 28.8475 2 29.3966L2 36.6033C2 37.1524 2.44511 37.5975 2.99418 37.5975H3.7647C6.14033 37.5975 8.06968 39.2632 8.80025 41.3747C9.13427 42.34 9.52447 43.2793 9.96696 44.1884C10.9449 46.1979 10.7581 48.74 9.07843 50.4196L8.37132 49.7125L9.07843 50.4196L8.53173 50.9663C8.14348 51.3546 8.14348 51.9841 8.53173 52.3723L13.6276 57.4682C14.0159 57.8565 14.6454 57.8565 15.0336 57.4682L15.5803 56.9215C17.26 55.2419 19.8021 55.055 21.8115 56.033C22.7207 56.4755 23.6599 56.8657 24.6253 57.1997C26.7367 57.9303 28.4025 59.8596 28.4025 62.2353V63.0058C28.4025 63.5549 28.8476 64 29.3967 64H36.6034C37.1524 64 37.5975 63.5549 37.5975 63.0058V58.9862C37.5975 58.4371 37.1524 57.992 36.6034 57.992H34.8675C21.0648 57.992 9.87549 46.8027 9.87549 33C9.87549 19.1973 21.0648 8.00797 34.8675 8.00797H38.5975V10.008H34.8675C22.1694 10.008 11.8755 20.3019 11.8755 33C11.8755 45.6982 22.1694 55.992 34.8675 55.992H36.6034C38.257 55.992 39.5975 57.3326 39.5975 58.9862V63.0058C39.5975 64.6595 38.257 66 36.6034 66H29.3967C27.743 66 26.4025 64.6595 26.4025 63.0058V62.2353C26.4025 60.8492 25.4148 59.5892 23.9713 59.0898C22.9299 58.7295 21.9168 58.3086 20.9363 57.8313C19.5636 57.1632 17.9746 57.3557 16.9945 58.3358L16.4478 58.8824C15.2785 60.0517 13.3827 60.0517 12.2134 58.8824L7.11752 53.7865C5.94822 52.6172 5.94821 50.7214 7.11751 49.5521L7.82462 50.2592L7.11752 49.5521L7.66421 49.0054C8.64429 48.0253 8.83673 46.4364 8.16864 45.0637C7.69142 44.0831 7.27053 43.0701 6.91019 42.0286C6.41075 40.5852 5.15074 39.5975 3.7647 39.5975H2.99418C1.34054 39.5975 4.76837e-07 38.2569 4.17233e-07 36.6033L0 29.3966C0 27.743 1.34054 26.4024 2.99418 26.4024H3.76474C5.15077 26.4024 6.41078 25.4147 6.91023 23.9713C7.27056 22.9299 7.69145 21.9168 8.16866 20.9363C8.83675 19.5636 8.64431 17.9746 7.66423 16.9945L7.11752 16.4478C5.94822 15.2785 5.94822 13.3827 7.11752 12.2134L12.2134 7.1175C13.3827 5.9482 15.2785 5.9482 16.4478 7.1175L16.9946 7.66422C17.9746 8.6443 19.5636 8.83674 20.9363 8.16864C21.9168 7.69143 22.9299 7.27054 23.9713 6.91021C25.4148 6.41076 26.4025 5.15075 26.4025 3.76472V2.99418Z" fill="#B4804B"/>
<path fill-rule="evenodd" clip-rule="evenodd" d="M55.3362 2.69434C53.6857 2.69434 52.3478 4.03227 52.3478 5.68269C52.3478 5.93449 52.3787 6.17766 52.4365 6.40919C52.7607 7.70904 53.9374 8.67105 55.3362 8.67105C56.9866 8.67105 58.3245 7.33312 58.3245 5.68269C58.3245 4.03227 56.9866 2.69434 55.3362 2.69434ZM50.3478 5.68269C50.3478 2.9277 52.5812 0.694336 55.3362 0.694336C58.0911 0.694336 60.3245 2.9277 60.3245 5.68269C60.3245 8.43769 58.0911 10.6711 55.3362 10.6711C53.6569 10.6711 52.1726 9.84177 51.2688 8.57091L47.7761 13.1919C46.0795 15.4365 43.4286 16.7558 40.6148 16.7558H32.7249C23.7533 16.7558 16.4805 24.0287 16.4805 33.0002C16.4805 41.9718 23.7533 49.2446 32.7249 49.2446H40.367C43.3365 49.2446 46.1139 50.7132 47.7857 53.1673L51.1842 58.1559C52.0784 56.8158 53.6037 55.9331 55.3362 55.9331C58.0912 55.9331 60.3245 58.1665 60.3245 60.9215C60.3245 63.6764 58.0911 65.9098 55.3362 65.9098C52.5812 65.9098 50.3478 63.6764 50.3478 60.9215C50.3478 60.7816 50.3536 60.6429 50.3649 60.5056L46.1328 54.2933C44.8335 52.386 42.6749 51.2446 40.367 51.2446H32.7249C22.6488 51.2446 14.4805 43.0763 14.4805 33.0002C14.4805 22.9241 22.6488 14.7558 32.7249 14.7558H40.6148C42.8017 14.7558 44.862 13.7305 46.1806 11.9859L50.3997 6.40387C50.3655 6.168 50.3478 5.92717 50.3478 5.68269ZM62.5041 14.0743C60.8537 14.0743 59.5158 15.4122 59.5158 17.0627C59.5158 18.7131 60.8537 20.051 62.5041 20.051C64.1545 20.051 65.4925 18.7131 65.4925 17.0627C65.4925 15.4122 64.1545 14.0743 62.5041 14.0743ZM57.616 16.0627C58.0791 13.7869 60.0916 12.0743 62.5041 12.0743C65.2591 12.0743 67.4925 14.3077 67.4925 17.0627C67.4925 19.8177 65.2591 22.051 62.5041 22.051C60.0916 22.051 58.0791 20.3384 57.616 18.0627H55.6379C54.686 18.0627 53.791 18.5162 53.2281 19.2838L49.4006 24.5031C48.4609 25.7845 46.967 26.5415 45.378 26.5415H33.5138C29.4614 26.5415 26.1763 29.8266 26.1763 33.879C26.1763 37.9314 29.4614 41.2166 33.5138 41.2166H45.2765C46.9361 41.2166 48.487 42.0419 49.4141 43.4184L53.2607 49.1301C53.816 49.9547 54.7451 50.4492 55.7393 50.4492H57.616C58.0791 48.1734 60.0916 46.4608 62.5041 46.4608C65.2591 46.4608 67.4925 48.6942 67.4925 51.4492C67.4925 54.2042 65.2591 56.4376 62.5041 56.4376C60.0916 56.4376 58.0791 54.7249 57.616 52.4492H55.7393C54.0798 52.4492 52.5288 51.6238 51.6018 50.2473L47.7552 44.5356C47.1999 43.711 46.2708 43.2166 45.2765 43.2166H33.5138C28.3569 43.2166 24.1763 39.036 24.1763 33.879C24.1763 28.7221 28.3569 24.5415 33.5138 24.5415H45.378C46.3299 24.5415 47.2249 24.088 47.7878 23.3204L51.6153 18.1011C52.555 16.8197 54.0489 16.0627 55.6379 16.0627H57.616ZM66.2725 30.5089C64.6221 30.5089 63.2841 31.8469 63.2841 33.4973C63.2841 35.1477 64.6221 36.4857 66.2725 36.4857C67.9229 36.4857 69.2608 35.1477 69.2608 33.4973C69.2608 31.8469 67.9229 30.5089 66.2725 30.5089ZM61.3844 32.4973C61.8475 30.2215 63.86 28.5089 66.2725 28.5089C69.0275 28.5089 71.2608 30.7423 71.2608 33.4973C71.2608 36.2523 69.0275 38.4857 66.2725 38.4857C63.86 38.4857 61.8475 36.7731 61.3844 34.4973H37.6954V32.4973H61.3844ZM62.5041 48.4608C60.8537 48.4608 59.5158 49.7987 59.5158 51.4492C59.5158 53.0996 60.8537 54.4376 62.5041 54.4376C64.1545 54.4376 65.4925 53.0996 65.4925 51.4492C65.4925 49.7988 64.1545 48.4608 62.5041 48.4608ZM55.3362 57.9331C53.8572 57.9331 52.6274 59.0085 52.3895 60.42C52.3622 60.5824 52.3478 60.7499 52.3478 60.9215C52.3478 62.5719 53.6857 63.9098 55.3362 63.9098C56.9866 63.9098 58.3245 62.5719 58.3245 60.9215C58.3245 59.271 56.9866 57.9331 55.3362 57.9331Z" fill="#B4804B"/>
</svg>
