<svg width="50" height="42" viewBox="0 0 50 42" fill="none" xmlns="http://www.w3.org/2000/svg">
<path fill-rule="evenodd" clip-rule="evenodd" d="M7.87615 3.40779C7.87615 1.52572 9.40187 0 11.2839 0H37.6487C39.5307 0 41.0565 1.52572 41.0565 3.40779V18.0922C41.0565 18.7991 40.8413 19.4556 40.4728 20H49.9711V21.5H27.1241C26.0704 21.5 25.2163 22.3541 25.2163 23.4078V38.0922C25.2163 39.1459 26.0704 40 27.1241 40H49.9711V41.5H27.1241C26.0494 41.5 25.0909 41.0025 24.4663 40.2253C23.8417 41.0025 22.8832 41.5 21.8085 41.5H0V40H21.8085C22.8622 40 23.7163 39.1459 23.7163 38.0922V23.4078C23.7163 22.3541 22.8622 21.5 21.8085 21.5H0V20H8.45981C8.09135 19.4556 7.87615 18.7991 7.87615 18.0922V3.40779ZM11.2839 20H37.6487C38.7023 20 39.5565 19.1459 39.5565 18.0922V3.40779C39.5565 2.35415 38.7023 1.5 37.6487 1.5H11.2839C10.2303 1.5 9.37615 2.35415 9.37615 3.40779V18.0922C9.37615 19.1459 10.2303 20 11.2839 20ZM11.3332 4.82743C11.3332 3.73572 12.3702 3.11683 13.2829 3.11683H35.6497C36.5624 3.11683 37.5994 3.73572 37.5994 4.82743V16.6726C37.5994 17.7643 36.5624 18.3832 35.6497 18.3832H13.2829C12.3702 18.3832 11.3332 17.7643 11.3332 16.6726V4.82743ZM12.8407 4.80382C12.8335 4.81746 12.8332 4.82422 12.8332 4.82743V16.6726C12.8332 16.6758 12.8335 16.6825 12.8407 16.6962C12.8487 16.7114 12.8668 16.7371 12.9034 16.7664C12.9785 16.8265 13.1101 16.8832 13.2829 16.8832H35.6497C35.8225 16.8832 35.9541 16.8265 36.0292 16.7664C36.0658 16.7371 36.0839 16.7114 36.0919 16.6962C36.0991 16.6825 36.0994 16.6758 36.0994 16.6726V4.82743C36.0994 4.82422 36.0991 4.81746 36.0919 4.80382C36.0839 4.78862 36.0658 4.76287 36.0292 4.73362C35.9541 4.6735 35.8225 4.61683 35.6497 4.61683H13.2829C13.1101 4.61683 12.9785 4.6735 12.9034 4.73362C12.8668 4.76287 12.8487 4.78862 12.8407 4.80382ZM19.8096 24.6168H0V23.1168H19.8096C20.7222 23.1168 21.7592 23.7357 21.7592 24.8274V36.6726C21.7592 37.7643 20.7222 38.3832 19.8096 38.3832H0V36.8832H19.8096C19.9823 36.8832 20.114 36.8265 20.1891 36.7664C20.2256 36.7371 20.2438 36.7114 20.2518 36.6962C20.259 36.6825 20.2592 36.6758 20.2592 36.6726V24.8274C20.2592 24.8242 20.259 24.8175 20.2518 24.8038C20.2438 24.7886 20.2256 24.7629 20.1891 24.7336C20.114 24.6735 19.9823 24.6168 19.8096 24.6168ZM27.1734 24.8274C27.1734 23.7357 28.2104 23.1168 29.123 23.1168H49.9711V24.6168H29.123C28.9503 24.6168 28.8186 24.6735 28.7435 24.7336C28.707 24.7629 28.6888 24.7886 28.6808 24.8038C28.6736 24.8175 28.6734 24.8242 28.6734 24.8274V36.6726C28.6734 36.6758 28.6736 36.6825 28.6808 36.6962C28.6888 36.7114 28.707 36.7371 28.7435 36.7664C28.8186 36.8265 28.9503 36.8832 29.123 36.8832H49.9711V38.3832H29.123C28.2104 38.3832 27.1734 37.7643 27.1734 36.6726V24.8274Z" fill="#B4804B"/>
</svg>
