<svg width="542" height="413" viewBox="0 0 542 413" fill="none" xmlns="http://www.w3.org/2000/svg">
<g filter="url(#filter0_b_1614_5378)">
<path d="M264.681 382.998C264.079 382.108 263.503 381.198 262.952 380.268L246.516 355.902C220.891 312.648 260.619 241.741 335.251 197.527C409.883 153.313 491.157 152.535 516.781 195.788L533.218 220.309C534.018 221.661 534.755 223.039 535.429 224.443C539.178 232.249 540.981 240.834 541 249.915C541.095 291.502 503.821 343.53 444.483 378.684C371.456 421.947 292.069 423.475 264.681 382.998Z" fill="#0C0911" fill-opacity="0.8"/>
</g>
<path fill-rule="evenodd" clip-rule="evenodd" d="M460.839 189.379C428.194 189.692 389.388 200.875 352.196 222.909C315.004 244.943 286.552 273.566 270.595 302.008C254.623 330.476 251.257 358.568 263.812 379.759L262.091 380.779C249.02 358.716 252.706 329.805 268.851 301.03C285.009 272.229 313.737 243.369 351.177 221.188C388.617 199.008 427.764 187.696 460.82 187.379C493.846 187.063 521.007 197.737 534.078 219.8L532.357 220.82C519.803 199.629 493.514 189.066 460.839 189.379Z" fill="#312E36"/>
<path fill-rule="evenodd" clip-rule="evenodd" d="M444.399 164.357C411.651 164.671 372.76 175.887 335.506 197.957C298.252 220.028 269.731 248.748 253.723 277.319C237.711 305.897 234.264 334.227 246.938 355.634L250.441 360.828C264.14 378.763 288.896 387.62 318.899 387.333C351.646 387.019 390.538 375.803 427.792 353.733C465.045 331.662 493.566 302.942 509.574 274.371C525.589 245.788 529.035 217.452 516.351 196.043C503.668 174.634 477.161 164.044 444.399 164.357ZM249.634 361.419C248.356 359.743 247.171 357.989 246.086 356.157C233.144 334.312 236.75 305.567 252.851 276.83C268.959 248.08 297.618 219.241 334.996 197.097C372.374 174.953 411.436 163.673 444.389 163.357C477.322 163.042 504.26 173.685 517.205 195.522L533.641 220.042L533.648 220.054C538.952 229.007 541.476 239.113 541.5 249.898C541.538 265.447 536.388 282.415 526.882 299.381C510.774 328.13 482.115 356.97 444.737 379.114C407.359 401.258 368.297 412.499 335.344 412.776C303.434 413.045 277.152 403.025 263.775 382.538C263.347 381.882 262.931 381.214 262.529 380.536L249.634 361.419ZM520.709 202.546C529.271 223.341 524.877 249.104 510.446 274.86C494.338 303.61 465.679 332.449 428.301 354.593C390.923 376.737 351.862 388.017 318.908 388.333C292.135 388.589 269.324 381.603 254.772 367.248L263.374 380.001L263.382 380.013C263.93 380.939 264.504 381.844 265.103 382.728C278.368 402.317 303.988 412 335.334 411.699C368.082 411.386 406.973 400.17 444.227 378.099C481.481 356.029 510.002 327.346 526.01 298.815C535.459 281.973 540.532 265.218 540.499 249.912C540.474 239.278 537.987 229.346 532.794 220.576L520.709 202.546Z" fill="#EFEDF1"/>
<path fill-rule="evenodd" clip-rule="evenodd" d="M408.118 217.303L424.913 229.057L442.557 217.84L452.794 224.157L435.486 236.457L441.197 240.454L458.272 229.072L468.5 234.812L450.099 246.684L454.712 249.913C455.899 250.744 457.055 251.689 458.053 252.771C463.491 258.669 465.802 264.288 465.581 269.391C465.361 274.499 462.609 278.98 458.159 282.608C449.406 289.743 433.953 293.697 417.376 292.83C419.53 300.123 418.674 306.257 415.671 311.216C412.583 316.313 407.263 320.107 400.776 322.66C387.807 327.764 369.997 327.985 355.293 323.599C351.219 322.384 347.521 320.251 344.071 317.855L338.421 313.934L322.688 325.024L314.053 318.938L329.875 308.002L324.465 304.247L308.323 315.386L297.96 307.993L314.044 297.014L297.929 285.828L308.317 279.236L316.182 283.824L404.802 228.019L398.114 222.794L408.118 217.303ZM399.925 222.94L406.539 228.107L316.202 284.994L308.339 280.406L299.737 285.865L315.808 297.021L299.707 308.011L308.333 314.164L324.467 303.031L331.631 308.003L315.8 318.946L322.687 323.801L338.417 312.714L344.641 317.034C348.051 319.401 351.649 321.468 355.578 322.641C370.103 326.973 387.679 326.739 400.409 321.73C406.771 319.226 411.878 315.548 414.816 310.698C417.743 305.864 418.553 299.805 416.211 292.442L415.99 291.747L416.717 291.791C433.423 292.804 448.913 288.855 457.528 281.833C461.824 278.33 464.377 274.094 464.582 269.348C464.787 264.598 462.645 259.227 457.317 253.449C456.382 252.435 455.286 251.536 454.138 250.732L448.306 246.65L466.563 234.872L458.317 230.244L441.184 241.665L433.751 236.463L450.985 224.216L442.565 219.02L424.886 230.259L408.054 218.479L399.925 222.94ZM424.574 240.45L435.51 249.277C438.278 251.51 441.014 254.419 441.284 258.173C441.74 264.536 437.56 269.956 431.53 273.522C425.491 277.093 417.491 278.879 410.041 277.945C405.737 277.406 401.934 275.164 398.469 272.749L385.848 263.953L424.574 240.45ZM387.68 264.011L399.041 271.929C402.483 274.328 406.117 276.446 410.166 276.953C417.392 277.859 425.17 276.121 431.021 272.661C436.882 269.195 440.705 264.075 440.286 258.244C440.049 254.94 437.622 252.266 434.882 250.055L424.492 241.67L387.68 264.011ZM376.643 271.714L388.183 280.66C390.228 282.245 392.284 284.132 393.718 286.285C395.156 288.443 395.987 290.898 395.514 293.587C394.543 299.106 390.147 303.873 384.057 307.11C377.955 310.352 370.08 312.101 361.993 311.545C356.802 311.188 352.088 308.754 347.919 305.801L334.793 296.504L376.643 271.714ZM336.629 296.579L348.497 304.985C352.602 307.893 357.137 310.209 362.061 310.548C369.97 311.091 377.658 309.377 383.587 306.227C389.528 303.07 393.631 298.515 394.529 293.414C394.945 291.052 394.229 288.855 392.886 286.839C391.539 284.817 389.579 283.007 387.57 281.45L376.568 272.92L336.629 296.579Z" fill="#EFEDF1"/>
<g filter="url(#filter1_b_1614_5378)">
<path d="M98.9885 261.069C66.2806 282.629 28.4448 282.932 14.4798 261.746L6.00808 249.69C-7.95692 228.504 7.23718 193.851 39.9451 172.292C72.653 150.732 110.489 150.429 124.454 171.616L132.926 183.671C146.891 204.858 131.696 239.51 98.9885 261.069Z" fill="#0C0911" fill-opacity="0.8"/>
</g>
<path fill-rule="evenodd" clip-rule="evenodd" d="M124.072 209.773C130.13 195.957 130.353 182.382 123.619 172.166L125.289 171.065C132.52 182.036 132.128 196.38 125.903 210.576C119.674 224.784 107.558 238.979 91.0671 249.849C74.5761 260.719 56.7547 266.257 41.2418 266.382C25.7407 266.506 12.4044 261.211 5.1731 250.24L6.84296 249.14C13.5767 259.355 26.1408 264.502 41.2258 264.382C56.2991 264.261 73.7496 258.868 89.9664 248.179C106.183 237.49 118.019 223.578 124.072 209.773Z" fill="#312E36"/>
<path fill-rule="evenodd" clip-rule="evenodd" d="M89.232 156.424C74.0488 156.545 56.5056 161.975 40.2202 172.709C23.9348 183.444 12.0294 197.426 5.93214 211.332C-0.16627 225.24 -0.432486 239.005 6.42146 249.408L10.8978 255.779C7.27911 246.057 8.43731 234.505 13.488 222.986C19.6735 208.879 31.7191 194.755 48.1416 183.93C64.5641 173.105 82.2928 167.603 97.6957 167.48C109.526 167.385 120.026 170.467 127.48 176.791L124.04 171.897L124.036 171.891C117.178 161.486 104.421 156.302 89.232 156.424ZM132.512 183.953C132.511 183.951 132.509 183.949 132.508 183.947L131.484 182.49C124.424 173.058 112.166 168.364 97.7037 168.48C82.5205 168.601 64.9773 174.03 48.6919 184.765C32.4065 195.5 20.5011 209.482 14.4038 223.387C8.30422 237.298 8.0391 251.066 14.8972 261.47C21.7554 271.875 34.5125 277.059 49.7016 276.937C64.8848 276.816 82.4279 271.387 98.7133 260.652C114.999 249.917 126.904 235.935 133.001 222.03C139.1 208.121 139.366 194.356 132.512 183.953ZM132.291 181.899L124.871 171.34C124.87 171.338 124.869 171.336 124.867 171.334C117.759 160.557 104.618 155.301 89.224 155.424C73.8211 155.547 56.0924 161.049 39.6699 171.874C23.2474 182.699 11.2018 196.823 5.01631 210.93C-1.16684 225.032 -1.51628 239.183 5.5906 249.965L5.5947 249.971L14.0664 262.027C21.1743 272.805 34.3154 278.06 49.7096 277.937C65.1125 277.814 82.8412 272.312 99.2637 261.487C115.686 250.662 127.732 236.538 133.917 222.431C140.1 208.33 140.45 194.178 133.343 183.396C133.006 182.885 132.655 182.386 132.291 181.899Z" fill="#EFEDF1"/>
<path fill-rule="evenodd" clip-rule="evenodd" d="M88.423 189.291L87.128 196.104H96.2047L96.2435 196.11C100.624 196.803 103.391 198.309 104.862 200.337C106.343 202.378 106.433 204.84 105.696 207.259C104.961 209.673 103.392 212.094 101.466 214.149C99.9134 215.806 98.1096 217.246 96.2849 218.263C99.6125 219.087 101.826 220.755 102.921 222.955C104.163 225.453 103.901 228.506 102.407 231.515C99.4202 237.528 91.44 243.568 79.7116 245.428L75.1659 246.227L73.1276 253.911L66.1286 254.506L68.0279 247.299L64.7294 247.69L62.703 255.189L55.5224 256.045L57.5319 248.621L44.9182 250.63L46.1331 244.501L51.4566 243.573L60.2401 206.243H56.1458L57.1033 199.512L69.5594 198.165L70.7612 191.247L77.7295 190.486L76.8427 197.279L79.9508 196.981L81.6368 189.621L88.423 189.291ZM82.4424 190.583L80.7645 197.908L75.6887 198.395L76.5732 191.618L71.6177 192.159L70.4158 199.078L57.9838 200.422L57.2981 205.243H61.5027L52.2788 244.445L46.9806 245.369L46.1782 249.417L58.901 247.39L56.8746 254.877L61.9139 254.276L63.9404 246.777L69.3694 246.133L67.457 253.389L72.3415 252.975L74.3632 245.353L79.551 244.441C91.0507 242.618 98.704 236.722 101.511 231.07C102.913 228.246 103.087 225.535 102.025 223.401C100.967 221.274 98.6152 219.591 94.6846 218.959L93.0134 218.69L94.5624 218.007C96.6772 217.076 98.8836 215.442 100.736 213.465C102.59 211.487 104.061 209.196 104.739 206.968C105.416 204.745 105.295 202.636 104.053 200.924C102.805 199.204 100.351 197.779 96.1258 197.104H85.92L87.2035 190.351L82.4424 190.583ZM87.2176 201.484L87.3097 201.514C89.9156 202.367 91.4522 203.815 92.0344 205.602C92.6104 207.37 92.2113 209.349 91.2105 211.194C89.2135 214.875 84.6948 218.273 79.6974 218.96L79.6848 218.962L70.5658 219.746L74.1147 202.357L87.2176 201.484ZM74.942 203.305L71.8131 218.635L79.5736 217.968C84.2463 217.321 88.4857 214.119 90.3315 210.717C91.2529 209.018 91.5461 207.332 91.0835 205.912C90.6329 204.529 89.4255 203.281 87.0898 202.495L74.942 203.305ZM84.2172 222.707L84.293 222.728C86.7427 223.389 88.4012 224.748 89.1489 226.528C89.8945 228.304 89.6937 230.401 88.6265 232.462C86.4968 236.574 80.8819 240.654 71.8189 242.306L71.7745 242.314H64.2643L70.1402 223.382L84.2172 222.707ZM70.8877 224.348L65.6217 241.314H71.6839C80.5432 239.689 85.805 235.736 87.7385 232.002C88.7046 230.136 88.831 228.354 88.2269 226.916C87.6318 225.499 86.2876 224.321 84.1072 223.714L70.8877 224.348Z" fill="#EFEDF1"/>
<g filter="url(#filter2_b_1614_5378)">
<path d="M270.901 45.6648C270.901 66.484 250.404 83.3613 225.119 83.3613C199.835 83.3613 179.338 66.484 179.338 45.6648V38.8108C179.338 17.9916 199.835 1.11426 225.119 1.11426C250.404 1.11426 270.901 17.9916 270.901 38.8108V45.6648Z" fill="#0C0911" fill-opacity="0.7"/>
<path d="M270.901 45.6648C270.901 66.484 250.404 83.3613 225.119 83.3613C199.835 83.3613 179.338 66.484 179.338 45.6648V38.8108C179.338 17.9916 199.835 1.11426 225.119 1.11426C250.404 1.11426 270.901 17.9916 270.901 38.8108V45.6648Z" stroke="#B6B0BF"/>
</g>
<path fill-rule="evenodd" clip-rule="evenodd" d="M179.838 38.8105C179.838 59.2671 200.016 76.0071 225.119 76.0071C250.223 76.0071 270.401 59.2671 270.401 38.8105H271.401C271.401 59.9924 250.585 77.0071 225.119 77.0071C199.654 77.0071 178.838 59.9924 178.838 38.8105H179.838Z" fill="#312E36"/>
<path fill-rule="evenodd" clip-rule="evenodd" d="M179.86 37.6339C184.335 20.342 202.969 7.46825 225.119 7.46825C247.27 7.46825 265.903 20.342 270.378 37.6339C269.622 17.7161 249.74 1.61426 225.119 1.61426C200.499 1.61426 180.616 17.7161 179.86 37.6339ZM270.401 45.6648C270.401 25.2082 250.223 8.46825 225.119 8.46825C200.016 8.46825 179.838 25.2082 179.838 45.6648C179.838 66.1214 200.016 82.8613 225.119 82.8613C250.223 82.8613 270.401 66.1214 270.401 45.6648ZM178.838 45.6648C178.838 66.8466 199.654 83.8613 225.119 83.8613C250.585 83.8613 271.401 66.8466 271.401 45.6648V38.8108C271.401 17.6289 250.585 0.614258 225.119 0.614258C199.654 0.614258 178.838 17.6289 178.838 38.8108V45.6648Z" fill="#B6B0BF"/>
<path fill-rule="evenodd" clip-rule="evenodd" d="M232.227 21.7107C232.195 21.4402 232.192 21.4391 231.358 21.4155C231.329 21.4147 231.301 21.414 231.273 21.4134C231.273 21.4134 231.273 21.4134 231.273 21.4134C230.719 21.4015 230.464 21.4355 230.333 21.5364L204.744 46.4468L204.98 47.986L225.201 48.0361L225.231 48.6544C225.26 49.2624 225.249 49.2906 224.596 50.3783C223.946 51.4278 216.188 64.0647 216.188 64.1306C216.188 64.1965 216.253 64.3756 216.332 64.5285C216.608 65.0631 216.773 65.0006 218.334 63.769C218.605 63.5578 245.331 42.3264 245.494 42.1915C245.392 42.0108 245.054 41.4793 244.969 41.4115C244.852 41.3171 232.542 41.1033 224.392 41.0929C224.377 41.0928 224.362 41.0928 224.347 41.0928C224.162 41.0926 223.979 41.0925 223.798 41.0925C223.598 40.9706 223.477 40.8184 223.477 40.6875C223.477 40.6875 232.246 21.875 232.227 21.7107ZM243.692 42.3474C243.413 42.3387 243.09 42.3298 242.729 42.3206C241.378 42.2863 239.501 42.2495 237.372 42.2157C233.113 42.1481 227.856 42.0926 223.798 42.0925L223.517 42.0924L223.277 41.9463C223.101 41.8391 222.923 41.6967 222.778 41.5135C222.641 41.3395 222.477 41.0555 222.477 40.6875V40.4659L222.571 40.265L223.477 40.6875C222.571 40.265 222.571 40.2652 222.571 40.265L222.948 39.4567C223.187 38.942 223.53 38.2066 223.941 37.3237C224.762 35.5577 225.857 33.2014 226.952 30.8402C228.047 28.4786 229.14 26.1132 229.959 24.3283C230.293 23.598 230.582 22.9662 230.805 22.4724L205.811 46.8043L205.839 46.9881L226.155 47.0385L226.23 48.6068C226.23 48.6068 226.23 48.6067 226.23 48.6068C226.23 48.6157 226.23 48.6248 226.231 48.6339C226.245 48.9258 226.261 49.2644 226.108 49.6818C225.992 49.9976 225.775 50.3583 225.494 50.8261C225.481 50.8481 225.467 50.8704 225.454 50.8929L225.447 50.9049C225.123 51.4271 223.022 54.8463 221.001 58.1457C220.03 59.7303 219.079 61.2861 218.352 62.4783L218.95 62.0035C219.707 61.4025 220.774 60.5554 222.047 59.5443C224.593 57.522 227.964 54.8441 231.332 52.1686C234.7 49.4931 238.065 46.8199 240.597 44.8073C241.864 43.8009 242.922 42.9598 243.669 42.366L243.692 42.3474Z" fill="#B6B0BF"/>
<g filter="url(#filter3_b_1614_5378)">
<path d="M215.207 174.625C191.318 177.331 173.049 189.202 174.401 201.141L175.273 211.812C176.625 223.75 197.087 231.234 220.976 228.528C244.865 225.823 263.135 213.951 261.782 202.013L260.91 191.342C259.558 179.404 239.096 171.92 215.207 174.625Z" fill="#15101C" fill-opacity="0.7"/>
</g>
<path fill-rule="evenodd" clip-rule="evenodd" d="M247.262 188.492C239.052 185.489 228.021 184.296 216.119 185.644C204.216 186.993 193.731 190.623 186.401 195.386C179.052 200.161 174.968 206.006 175.621 211.773L174.925 211.851C174.226 205.679 178.601 199.62 186.02 194.799C193.459 189.965 204.053 186.307 216.04 184.949C228.027 183.591 239.171 184.787 247.502 187.835C255.812 190.874 261.431 195.802 262.13 201.974L261.435 202.053C260.781 196.286 255.493 191.503 247.262 188.492Z" fill="#4B4653"/>
<path fill-rule="evenodd" clip-rule="evenodd" d="M246.389 177.821C238.18 174.818 227.149 173.625 215.246 174.974C203.344 176.322 192.859 179.952 185.529 184.715C178.179 189.49 174.095 195.335 174.748 201.102C175.402 206.868 180.69 211.651 188.921 214.662C197.131 217.665 208.162 218.858 220.064 217.51C231.966 216.162 242.452 212.532 249.782 207.769C256.846 203.178 260.893 197.6 260.617 192.053L260.562 191.376C259.906 185.613 254.619 180.831 246.389 177.821ZM261.316 192.012C261.304 191.776 261.285 191.54 261.258 191.303C260.559 185.131 254.94 180.203 246.63 177.164C238.298 174.116 227.154 172.92 215.168 174.278C203.181 175.636 192.587 179.294 185.148 184.128C177.731 188.947 173.356 195.005 174.052 201.175L174.924 211.841L174.924 211.841L174.925 211.851C175.624 218.023 181.243 222.951 189.553 225.991C197.885 229.038 209.029 230.234 221.015 228.877C233.002 227.519 243.596 223.86 251.035 219.027C258.452 214.207 262.826 208.15 262.131 201.98L261.316 192.012ZM260.915 195.702C259.687 200.306 255.806 204.689 250.163 208.356C242.724 213.189 232.13 216.848 220.143 218.205C208.156 219.563 197.012 218.367 188.681 215.32C182.033 212.888 177.108 209.248 175.045 204.73L175.621 211.778C176.277 217.542 181.564 222.323 189.793 225.333C198.003 228.336 209.034 229.529 220.937 228.181C232.839 226.833 243.324 223.203 250.654 218.44C258.003 213.664 262.088 207.819 261.434 202.053L261.433 202.042L261.433 202.042L260.915 195.702Z" fill="#9791A1"/>
<path d="M201.096 192.077C201.096 192.077 223.005 178.938 223.217 178.821C223.679 178.567 224.907 178.5 224.907 178.729C224.907 178.908 219.117 187.707 219.117 187.707C218.685 188.278 218.656 188.384 218.9 188.504L237.963 188.683C238.089 188.683 238.179 188.718 238.218 188.97C238.246 189.144 238.277 189.231 238.218 189.286C238.121 189.377 210.078 211.926 209.433 212.43C209.147 212.626 209.127 212.628 208.859 212.465C208.321 212.137 208.175 211.422 208.503 210.95C208.576 210.845 220.034 194.87 220.034 194.81C220.129 194.731 220.178 194.515 220.178 194.171V193.652H200.472C200.626 192.792 200.777 192.244 201.096 192.077Z" fill="#0C0912"/>
<path fill-rule="evenodd" clip-rule="evenodd" d="M201.454 192.675L201.096 192.077C201.401 192.586 201.447 192.663 201.454 192.675C201.454 192.675 201.454 192.675 201.454 192.675ZM201.457 192.676C201.445 192.695 201.417 192.743 201.38 192.844C201.368 192.878 201.356 192.913 201.344 192.952H220.878V194.171C220.878 194.369 220.865 194.567 220.825 194.744C220.796 194.872 220.735 195.072 220.586 195.245C220.584 195.248 220.582 195.251 220.58 195.254C220.556 195.29 220.521 195.34 220.479 195.401C220.394 195.523 220.269 195.699 220.112 195.921C219.798 196.365 219.35 196.995 218.812 197.749C217.736 199.257 216.302 201.263 214.865 203.271C213.428 205.278 211.989 207.287 210.904 208.8L209.112 211.302C209.098 211.322 209.088 211.334 209.083 211.342C209.079 211.347 209.077 211.35 209.077 211.35C209.038 211.407 209.015 211.499 209.039 211.608C209.054 211.672 209.082 211.731 209.124 211.781C210.148 210.965 216.895 205.542 223.592 200.158C227.144 197.302 230.678 194.459 233.331 192.324C234.658 191.257 235.763 190.367 236.541 189.741C236.708 189.606 236.86 189.483 236.996 189.374L218.735 189.202L218.592 189.132C218.516 189.095 218.329 189.001 218.196 188.809C218.023 188.56 218.025 188.291 218.08 188.091C218.125 187.925 218.211 187.78 218.279 187.676C218.35 187.565 218.441 187.441 218.544 187.303L218.781 186.944C218.939 186.703 219.165 186.359 219.436 185.945C219.979 185.118 220.702 184.013 221.425 182.903C222.149 181.792 222.871 180.678 223.412 179.831C223.514 179.671 223.61 179.521 223.697 179.382C223.621 179.404 223.574 179.423 223.555 179.434C223.555 179.434 223.553 179.435 223.548 179.438C223.526 179.451 223.444 179.5 223.292 179.59C223.121 179.692 222.875 179.839 222.565 180.025C221.946 180.395 221.073 180.918 220.031 181.542C217.947 182.79 215.189 184.443 212.437 186.093C209.685 187.743 206.939 189.389 204.882 190.623L201.457 192.676ZM224.184 178.597C224.196 178.596 224.208 178.595 224.22 178.595C224.591 178.573 224.907 178.613 224.907 178.729C224.907 178.755 224.785 178.962 224.577 179.297C224.577 179.298 224.576 179.298 224.576 179.299C223.348 181.277 219.117 187.707 219.117 187.707C219.091 187.741 219.066 187.774 219.043 187.805C218.989 187.878 218.943 187.942 218.905 187.999C218.685 188.321 218.705 188.408 218.9 188.504L237.963 188.683C238.089 188.683 238.179 188.718 238.218 188.97C238.223 189.002 238.229 189.032 238.233 189.058C238.254 189.175 238.266 189.241 238.218 189.286C238.121 189.377 210.078 211.926 209.433 212.43C209.147 212.626 209.127 212.628 208.859 212.465C208.321 212.137 208.175 211.422 208.503 210.95C208.517 210.93 208.937 210.343 209.61 209.404C212.498 205.374 220.034 194.859 220.034 194.81C220.111 194.746 220.158 194.591 220.173 194.352C220.177 194.296 220.178 194.236 220.178 194.171V193.652H200.472C200.519 193.389 200.566 193.155 200.618 192.952C200.734 192.492 200.874 192.193 201.096 192.077C201.096 192.077 223.005 178.938 223.217 178.821C223.438 178.699 223.832 178.621 224.184 178.597Z" fill="#9791A1"/>
<defs>
<filter id="filter0_b_1614_5378" x="214.733" y="139.851" width="350.267" height="296.431" filterUnits="userSpaceOnUse" color-interpolation-filters="sRGB">
<feFlood flood-opacity="0" result="BackgroundImageFix"/>
<feGaussianBlur in="BackgroundImageFix" stdDeviation="12"/>
<feComposite in2="SourceAlpha" operator="in" result="effect1_backgroundBlur_1614_5378"/>
<feBlend mode="normal" in="SourceGraphic" in2="effect1_backgroundBlur_1614_5378" result="shape"/>
</filter>
<filter id="filter1_b_1614_5378" x="-17.1807" y="137.922" width="173.295" height="157.518" filterUnits="userSpaceOnUse" color-interpolation-filters="sRGB">
<feFlood flood-opacity="0" result="BackgroundImageFix"/>
<feGaussianBlur in="BackgroundImageFix" stdDeviation="9"/>
<feComposite in2="SourceAlpha" operator="in" result="effect1_backgroundBlur_1614_5378"/>
<feBlend mode="normal" in="SourceGraphic" in2="effect1_backgroundBlur_1614_5378" result="shape"/>
</filter>
<filter id="filter2_b_1614_5378" x="168.838" y="-9.38574" width="112.563" height="103.247" filterUnits="userSpaceOnUse" color-interpolation-filters="sRGB">
<feFlood flood-opacity="0" result="BackgroundImageFix"/>
<feGaussianBlur in="BackgroundImageFix" stdDeviation="5"/>
<feComposite in2="SourceAlpha" operator="in" result="effect1_backgroundBlur_1614_5378"/>
<feBlend mode="normal" in="SourceGraphic" in2="effect1_backgroundBlur_1614_5378" result="shape"/>
</filter>
<filter id="filter3_b_1614_5378" x="164.33" y="164.072" width="107.522" height="75.0088" filterUnits="userSpaceOnUse" color-interpolation-filters="sRGB">
<feFlood flood-opacity="0" result="BackgroundImageFix"/>
<feGaussianBlur in="BackgroundImageFix" stdDeviation="5"/>
<feComposite in2="SourceAlpha" operator="in" result="effect1_backgroundBlur_1614_5378"/>
<feBlend mode="normal" in="SourceGraphic" in2="effect1_backgroundBlur_1614_5378" result="shape"/>
</filter>
</defs>
</svg>
