<svg width="42" height="42" viewBox="0 0 42 42" fill="none" xmlns="http://www.w3.org/2000/svg">
<path fill-rule="evenodd" clip-rule="evenodd" d="M37.0979 3.56323C34.3469 0.812254 29.8867 0.812257 27.1357 3.56324L21.8381 8.86084C19.5635 11.1354 19.1693 14.5797 20.6567 17.2588L22.1007 15.8149C21.3889 13.7702 21.8488 11.4069 23.4838 9.77185L28.0467 5.20895C30.3233 2.93233 34.0145 2.93233 36.2911 5.20895C38.5677 7.48558 38.5677 11.1767 36.2911 13.4533L31.7282 18.0162C30.0602 19.6843 27.6341 20.1293 25.5615 19.3547L24.1338 20.7824C26.8277 22.3409 30.334 21.9671 32.6392 19.6619L37.9368 14.3643C40.6877 11.6133 40.6877 7.15313 37.9368 4.40215L37.0979 3.56323ZM23.0428 21.8734C26.3513 24.0005 30.8051 23.6173 33.6998 20.7226L38.9974 15.425C42.3342 12.0882 42.3342 6.67825 38.9974 3.34149L38.1585 2.50257C34.8217 -0.834194 29.4118 -0.834189 26.075 2.50258L20.7774 7.80018C17.9126 10.665 17.5077 15.0568 19.5614 18.3542L18.3542 19.5614C15.0568 17.5077 10.665 17.9126 7.80017 20.7774L2.50257 26.075C-0.834191 29.4118 -0.834192 34.8217 2.50257 38.1585L3.34149 38.9974C6.67826 42.3342 12.0882 42.3342 15.425 38.9974L20.7226 33.6998C23.6173 30.8051 24.0005 26.3513 21.8734 23.0428L23.0428 21.8734ZM20.7824 24.1338L19.3547 25.5615C20.1293 27.6341 19.6843 30.0601 18.0162 31.7282L13.4534 36.2911C11.1767 38.5677 7.48558 38.5677 5.20896 36.2911C2.93233 34.0145 2.93233 30.3233 5.20896 28.0467L9.77185 23.4838C11.4069 21.8488 13.7702 21.3889 15.8149 22.1007L17.2588 20.6567C14.5797 19.1693 11.1354 19.5635 8.86083 21.8381L3.56323 27.1357C0.812255 29.8867 0.812255 34.3469 3.56323 37.0979L4.40215 37.9368C7.15313 40.6877 11.6133 40.6877 14.3643 37.9368L19.6619 32.6392C21.9671 30.334 22.3409 26.8277 20.7824 24.1338ZM14.5844 23.3312C13.2586 23.1183 11.8536 23.5234 10.8325 24.5445L6.26962 29.1073C4.57878 30.7982 4.57878 33.5396 6.26962 35.2304C7.96046 36.9213 10.7019 36.9213 12.3927 35.2304L16.9556 30.6675C18.0134 29.6097 18.4101 28.1396 18.1434 26.7728L17.1926 27.7237C16.2639 28.6523 14.7583 28.6523 13.8297 27.7237L13.6922 27.5862C12.7636 26.6576 12.7636 25.152 13.6922 24.2233L14.5844 23.3312ZM26.7728 18.1434C28.1396 18.4101 29.6097 18.0134 30.6675 16.9556L35.2304 12.3927C36.9213 10.7018 36.9213 7.96045 35.2304 6.26961C33.5396 4.57877 30.7982 4.57877 29.1074 6.26961L24.5445 10.8325C23.5234 11.8535 23.1183 13.2586 23.3312 14.5844L24.1351 13.7805C25.0637 12.8518 26.5693 12.8518 27.498 13.7805L27.6354 13.9179C28.564 14.8465 28.564 16.3522 27.6354 17.2808L26.7728 18.1434ZM26.4373 14.8411C26.0945 14.4983 25.5386 14.4983 25.1957 14.8411L14.7529 25.284C14.4101 25.6268 14.4101 26.1827 14.7529 26.5256L14.8903 26.663C15.2332 27.0058 15.789 27.0058 16.1319 26.663L26.5747 16.2201C26.9176 15.8773 26.9176 15.3214 26.5747 14.9786L26.4373 14.8411Z" fill="#B4804B"/>
</svg>
