<svg width="52" height="45" viewBox="0 0 52 45" fill="none" xmlns="http://www.w3.org/2000/svg">
<path
    fill-rule="evenodd"
    clip-rule="evenodd"
    d="M2.66366 5.75073C1.99774 6.35321 1.73486 6.92592 1.73486 7.44307C1.73486 7.96022 1.99774 8.53293 2.66366 9.13541C3.33207 9.74013 4.35278 10.321 5.70982 10.8246C8.41904 11.8299 12.3118 12.4696 16.9331 12.4696C21.5544 12.4696 25.4472 11.8299 28.1564 10.8246C29.5135 10.321 30.5342 9.74013 31.2026 9.13541C31.8685 8.53293 32.1314 7.96022 32.1314 7.44307C32.1314 6.92592 31.8685 6.35321 31.2026 5.75073C30.5342 5.14601 29.5135 4.56514 28.1564 4.06157C25.4472 3.05622 21.5544 2.4165 16.9331 2.4165C12.3118 2.4165 8.41904 3.05622 5.70982 4.06157C4.35278 4.56514 3.33207 5.14601 2.66366 5.75073ZM23.775 13.4624C21.7232 13.7899 19.4186 13.9696 16.9331 13.9696C12.1942 13.9696 8.11281 13.3162 5.18797 12.2309C3.77136 11.7052 2.58888 11.0646 1.73486 10.3167V15.0029C1.73486 15.5201 1.99774 16.0928 2.66366 16.6953C3.33207 17.3 4.35278 17.8809 5.70982 18.3844C8.41904 19.3898 12.3118 20.0295 16.9331 20.0295C17.5168 20.0295 18.0893 20.0193 18.6495 19.9994C19.8084 17.4246 21.5784 15.1839 23.775 13.4624ZM18.0511 21.5172C17.6829 21.5254 17.3102 21.5295 16.9331 21.5295C12.1942 21.5295 8.11281 20.8761 5.18797 19.7907C3.77136 19.265 2.58888 18.6244 1.73486 17.8766V22.2287C1.73486 22.7458 1.99774 23.3186 2.66366 23.921C3.33207 24.5258 4.35278 25.1066 5.70982 25.6102C8.41904 26.6155 12.3118 27.2553 16.9331 27.2553C16.9996 27.2553 17.0659 27.2551 17.1321 27.2549C17.1316 27.2032 17.1314 27.1515 17.1314 27.0997C17.1314 25.1475 17.4547 23.2695 18.0511 21.5172ZM17.2095 28.7545C17.1176 28.755 17.0255 28.7553 16.9331 28.7553C12.1942 28.7553 8.11281 28.1019 5.18797 27.0165C3.77136 26.4908 2.58888 25.8502 1.73486 25.1024V29.2287C1.73486 29.7458 1.99774 30.3185 2.66367 30.921C3.33207 31.5257 4.35278 32.1066 5.70982 32.6102C8.41904 33.6155 12.3118 34.2552 16.9331 34.2552C17.5207 34.2552 18.0969 34.2449 18.6606 34.2247C17.8942 32.529 17.3929 30.6878 17.2095 28.7545ZM19.4112 35.6937C18.6088 35.7343 17.7819 35.7552 16.9331 35.7552C12.1942 35.7552 8.11281 35.1018 5.18797 34.0165C3.77136 33.4908 2.58888 32.8502 1.73486 32.1024V35.8899C1.73486 36.4071 1.99774 36.9798 2.66367 37.5823C3.33207 38.187 4.35278 38.7679 5.70982 39.2714C8.41904 40.2768 12.3118 40.9165 16.9331 40.9165C19.303 40.9165 21.4848 40.7482 23.4152 40.4474C21.812 39.1208 20.4518 37.5107 19.4112 35.6937ZM25.0897 41.6723C22.7316 42.1482 19.9701 42.4165 16.9331 42.4165C12.1942 42.4165 8.11281 41.7631 5.18797 40.6777C3.72797 40.136 2.51667 39.4721 1.65732 38.6946C0.795483 37.9149 0.234863 36.9679 0.234863 35.8899V7.44307C0.234863 6.36506 0.795483 5.41813 1.65732 4.63841C2.51667 3.86093 3.72797 3.19705 5.18797 2.65527C8.11281 1.56991 12.1942 0.916504 16.9331 0.916504C21.6721 0.916504 25.7534 1.56991 28.6783 2.65527C30.1383 3.19705 31.3496 3.86093 32.2089 4.63841C33.0708 5.41813 33.6314 6.36506 33.6314 7.44307V9.80189C33.9021 9.78931 34.1744 9.78296 34.4482 9.78296C44.012 9.78296 51.7649 17.5359 51.7649 27.0997C51.7649 36.6635 44.012 44.4165 34.4482 44.4165C31.0018 44.4165 27.7887 43.409 25.0897 41.6723ZM34.4482 11.283C33.9432 11.283 33.4439 11.3066 32.9514 11.3528C27.0233 11.9089 22.0436 15.7387 19.8426 21.0183C19.0625 22.8895 18.6314 24.9433 18.6314 27.0997C18.6314 27.3871 18.639 27.6725 18.6542 27.9559C18.7811 30.3373 19.4345 32.5778 20.4999 34.5643C21.7293 36.8564 23.5076 38.811 25.659 40.2518C28.1724 41.9349 31.1945 42.9165 34.4482 42.9165C43.1835 42.9165 50.2649 35.8351 50.2649 27.0997C50.2649 18.3644 43.1835 11.283 34.4482 11.283ZM34.1711 15.978C34.5854 15.978 34.9211 16.3138 34.9211 16.728V19.6756C35.5206 19.7256 36.069 19.8562 36.5528 20.0839C37.1665 20.3694 37.6831 20.7644 38.0838 21.2744C38.4576 21.7501 38.7453 22.2801 38.9471 22.8601C39.0831 23.2513 38.8763 23.6788 38.4851 23.8149C38.0939 23.951 37.6664 23.7441 37.5303 23.3529C37.3817 22.9255 37.1729 22.543 36.9043 22.2011C36.6631 21.894 36.3408 21.6395 35.9187 21.4433L35.915 21.4416C35.6513 21.3173 35.3235 21.2267 34.9211 21.1824V26.0044C34.9481 26.011 34.9752 26.0175 35.0026 26.0242C35.5752 26.1637 36.2427 26.4049 36.8635 26.7111C37.4744 27.0124 38.0966 27.4043 38.5345 27.8691C39.3874 28.7665 39.8019 29.8916 39.8019 31.1877C39.8019 32.2848 39.4949 33.2818 38.8742 34.1526C38.5628 34.5894 38.0828 35.0788 37.5876 35.4682C37.3376 35.6648 37.0682 35.8482 36.7983 35.9895C36.539 36.1253 36.2272 36.2502 35.9039 36.274C35.5502 36.3 35.2245 36.305 34.9211 36.2902V38.889C34.9211 39.3032 34.5854 39.639 34.1711 39.639C33.7569 39.639 33.4211 39.3032 33.4211 38.889V36.0092C32.7175 35.7617 32.1759 35.3865 31.6519 35.0233C31.6258 35.0052 31.5997 34.9872 31.5736 34.9691L31.5708 34.9672C30.3328 34.1023 29.5537 32.8563 29.2192 31.2896C29.1327 30.8845 29.3909 30.486 29.796 30.3995C30.2011 30.313 30.5996 30.5713 30.6861 30.9764C30.95 32.2124 31.5356 33.1123 32.4286 33.7367C32.429 33.7369 32.4294 33.7372 32.4299 33.7375L32.4311 33.7383C32.8041 33.9964 33.111 34.2087 33.4211 34.3742V27.1866C32.9803 27.0758 32.5829 26.9607 32.2531 26.8123C32.2082 26.7921 32.1616 26.7715 32.1135 26.7502C31.6271 26.5349 30.9929 26.2541 30.4881 25.6848C29.9039 25.0257 29.6812 24.1448 29.6812 23.3036C29.6812 22.1947 30.1731 21.2804 31.0801 20.6092C31.7477 20.1152 32.5363 19.8229 33.4211 19.7082V16.728C33.4211 16.3138 33.7569 15.978 34.1711 15.978ZM33.4211 21.2247C32.8367 21.3256 32.3599 21.5283 31.9724 21.815C31.4194 22.2242 31.1812 22.7043 31.1812 23.3036C31.1812 23.9078 31.3437 24.3886 31.6106 24.6897C31.8903 25.0052 32.2331 25.1591 32.7699 25.4001C32.8022 25.4145 32.8351 25.4293 32.8688 25.4445C33.0167 25.5111 33.1957 25.5714 33.4211 25.6349V21.2247ZM34.9211 27.5553V34.7879C35.1745 34.8039 35.4622 34.8024 35.7939 34.778C35.8239 34.7758 35.9249 34.7537 36.1024 34.6607C36.2694 34.5733 36.4609 34.4459 36.6605 34.289C37.0645 33.9714 37.4385 33.5824 37.6528 33.2819C38.0833 32.678 38.3019 31.9886 38.3019 31.1877C38.3019 30.2361 38.0088 29.4928 37.4462 28.9013L37.4436 28.8985C37.1807 28.6192 36.7375 28.3215 36.1999 28.0564C35.7724 27.8455 35.3213 27.6728 34.9211 27.5553Z"
    fill="#B4804B"
  />
</svg>
