<svg width="58" height="42" viewBox="0 0 58 42" fill="none" xmlns="http://www.w3.org/2000/svg">
<path fill-rule="evenodd" clip-rule="evenodd" d="M3.75942 2.74507C3.75942 1.40638 4.79657 0.25 6.16135 0.25H51.2794C52.6442 0.25 53.6813 1.40638 53.6813 2.74507V37.4129H57.75V41.75H0.25V37.4129H3.75942V2.74507ZM5.25942 37.4129H52.1813V2.74507C52.1813 2.15621 51.7393 1.75 51.2794 1.75H6.16135C5.70146 1.75 5.25942 2.15621 5.25942 2.74507V37.4129ZM8.06326 5.36055C8.06326 4.94634 8.39905 4.61055 8.81326 4.61055H9.63923C10.0534 4.61055 10.3892 4.94634 10.3892 5.36055C10.3892 5.77477 10.0534 6.11055 9.63923 6.11055H8.81326C8.39905 6.11055 8.06326 5.77477 8.06326 5.36055ZM11.3671 5.36055C11.3671 4.94634 11.7029 4.61055 12.1171 4.61055H12.9431C13.3573 4.61055 13.6931 4.94634 13.6931 5.36055C13.6931 5.77477 13.3573 6.11055 12.9431 6.11055H12.1171C11.7029 6.11055 11.3671 5.77477 11.3671 5.36055ZM14.671 5.36055C14.671 4.94634 15.0068 4.61055 15.421 4.61055H16.2469C16.6611 4.61055 16.9969 4.94634 16.9969 5.36055C16.9969 5.77477 16.6611 6.11055 16.2469 6.11055H15.421C15.0068 6.11055 14.671 5.77477 14.671 5.36055ZM7.2373 8.8507C7.2373 8.43648 7.57309 8.1007 7.9873 8.1007H49.4534C49.8676 8.1007 50.2034 8.43648 50.2034 8.8507C50.2034 9.26491 49.8676 9.6007 49.4534 9.6007H7.9873C7.57309 9.6007 7.2373 9.26491 7.2373 8.8507ZM22.9514 16.2688C23.2522 16.5535 23.2652 17.0282 22.9805 17.329L17.4621 23.1588L22.9981 29.4321C23.2722 29.7427 23.2426 30.2167 22.9321 30.4907C22.6215 30.7648 22.1475 30.7352 21.8735 30.4246L15.4302 23.1233L21.8911 16.2979C22.1759 15.997 22.6506 15.984 22.9514 16.2688ZM34.1018 16.2688C34.4026 15.984 34.8773 15.997 35.162 16.2979L41.6229 23.1233L35.1797 30.4246C34.9056 30.7352 34.4317 30.7648 34.1211 30.4907C33.8105 30.2167 33.7809 29.7427 34.055 29.4321L39.5911 23.1588L34.0727 17.329C33.7879 17.0282 33.8009 16.5535 34.1018 16.2688ZM32.6727 16.2773C33.0323 16.4828 33.1573 16.9409 32.9518 17.3006L25.6554 30.0703C25.4499 30.43 24.9918 30.555 24.6322 30.3495C24.2725 30.144 24.1475 29.6858 24.353 29.3262L31.6494 16.5564C31.8549 16.1968 32.313 16.0718 32.6727 16.2773ZM1.75 38.9129V40.25H56.25V38.9129H1.75Z" fill="#B4804B"/>
</svg>
