<svg width="66" height="66" viewBox="0 0 66 66" fill="none" xmlns="http://www.w3.org/2000/svg">
<path fill-rule="evenodd" clip-rule="evenodd" d="M35.0116 8.85059L36.5549 10.1226L35.8933 10.9253V38.8198L36.4305 39.276L35.1359 40.8005L33.8933 39.7452V10.2073L35.0116 8.85059ZM58.1005 15.4966H45.9749V13.4966H60.1005V36.3006H45.7311V34.3006H58.1005V15.4966ZM20.309 14.0317C20.8613 14.0317 21.309 14.4794 21.309 15.0317V16.7578H23.5124V15.0317C23.5124 14.4794 23.9601 14.0317 24.5124 14.0317C25.0647 14.0317 25.5124 14.4794 25.5124 15.0317V16.8494C27.5673 17.4722 28.62 19.107 28.6714 20.8687C28.7056 22.0414 28.2988 23.2444 27.5138 24.2275C28.9257 24.987 29.8087 26.3778 29.933 27.844C30.02 28.8707 29.7329 29.9331 29.0012 30.8047C28.27 31.6758 27.1559 32.286 25.7059 32.5372L25.6212 32.5519H25.5124V34.3425C25.5124 34.8947 25.0647 35.3425 24.5124 35.3425C23.9601 35.3425 23.5124 34.8947 23.5124 34.3425V32.5519H21.309V34.3425C21.309 34.8947 20.8613 35.3425 20.309 35.3425C19.7567 35.3425 19.309 34.8947 19.309 34.3425V32.5519H17.7826C17.2303 32.5519 16.7826 32.1042 16.7826 31.5519C16.7826 30.9996 17.2303 30.5519 17.7826 30.5519H18.0353V18.7578H17.7826C17.2303 18.7578 16.7826 18.3101 16.7826 17.7578C16.7826 17.2055 17.2303 16.7578 17.7826 16.7578H19.309V15.0317C19.309 14.4794 19.7567 14.0317 20.309 14.0317ZM20.0353 18.7578V23.6548H25.2363C26.2138 22.9584 26.7002 21.8831 26.6723 20.927C26.645 19.9904 26.1318 19.1197 24.9136 18.7578H20.0353ZM25.4807 25.6548H20.0353V30.5519H25.4458C26.4798 30.3577 27.1092 29.9479 27.4693 29.5189C27.8383 29.0794 27.9856 28.5494 27.9401 28.0129C27.8487 26.9352 26.9712 25.8291 25.4807 25.6548ZM36.0834 18.3618C36.0834 17.8095 36.5312 17.3618 37.0834 17.3618H41.8902C42.4425 17.3618 42.8902 17.8095 42.8902 18.3618C42.8902 18.9141 42.4425 19.3618 41.8902 19.3618H37.0834C36.5312 19.3618 36.0834 18.9141 36.0834 18.3618ZM36.0834 22.1782C36.0834 21.6259 36.5312 21.1782 37.0834 21.1782H43.3566C43.9089 21.1782 44.3566 21.6259 44.3566 22.1782C44.3566 22.7305 43.9089 23.1782 43.3566 23.1782H37.0834C36.5312 23.1782 36.0834 22.7305 36.0834 22.1782ZM36.0834 25.9345C36.0834 25.3822 36.5312 24.9345 37.0834 24.9345H42.7286C43.2809 24.9345 43.7286 25.3822 43.7286 25.9345C43.7286 26.4868 43.2809 26.9345 42.7286 26.9345H37.0834C36.5312 26.9345 36.0834 26.4868 36.0834 25.9345ZM36.0834 29.7864C36.0834 29.2341 36.5312 28.7864 37.0834 28.7864H42.4234C42.9757 28.7864 43.4234 29.2341 43.4234 29.7864C43.4234 30.3387 42.9757 30.7864 42.4234 30.7864H37.0834C36.5312 30.7864 36.0834 30.3387 36.0834 29.7864Z" fill="#B4804B"/>
<path fill-rule="evenodd" clip-rule="evenodd" d="M0 24.6494C0 11.0367 11.0258 0 24.6286 0C38.2314 0 49.2572 11.0367 49.2572 24.6494C49.2572 29.9001 47.6158 34.7696 44.8188 38.7688L46.7539 40.7056C48.1163 39.955 49.8632 40.1577 51.018 41.3136L64.6972 55.0048C66.4343 56.7435 66.4343 59.562 64.6972 61.3006L61.3052 64.6956C59.5675 66.4348 56.75 66.4348 55.0124 64.6956L41.2345 50.9056C40.1347 49.8049 39.934 48.1453 40.6323 46.8405L38.6855 44.892C34.6993 47.6697 29.8528 49.2988 24.6286 49.2988C11.0258 49.2988 0 38.2621 0 24.6494ZM24.6286 2C12.132 2 2 12.1396 2 24.6494C2 37.1592 12.132 47.2988 24.6286 47.2988C29.7171 47.2988 34.4108 45.6188 38.1902 42.7823L38.8844 42.2613L43.3555 46.7365L42.6494 47.4432C42.0842 48.0089 42.0842 48.9264 42.6494 49.492L56.4272 63.2821C57.3836 64.2393 58.9339 64.2393 59.8903 63.2821L63.2823 59.8871C64.2392 58.9293 64.2392 57.3761 63.2823 56.4184L49.6032 42.7271C48.984 42.1074 47.9805 42.1074 47.3613 42.7271L46.6539 43.4352L42.187 38.9643L42.7096 38.2704C45.5648 34.4796 47.2572 29.7638 47.2572 24.6494C47.2572 12.1396 37.1252 2 24.6286 2ZM24.6286 6.84254C14.742 6.84254 6.72579 14.8645 6.72579 24.762C6.72579 34.6595 14.742 42.6814 24.6286 42.6814C34.5152 42.6814 42.5314 34.6595 42.5314 24.762C42.5314 14.8645 34.5152 6.84254 24.6286 6.84254ZM4.72579 24.762C4.72579 13.7616 13.6357 4.84254 24.6286 4.84254C35.6214 4.84254 44.5314 13.7616 44.5314 24.762C44.5314 29.9418 42.5559 34.6601 39.3176 38.203L54.1716 53.0701L52.7567 54.4837L37.8962 39.6101C34.3753 42.7638 29.7259 44.6814 24.6286 44.6814C13.6357 44.6814 4.72579 35.7624 4.72579 24.762Z" fill="#B4804B"/>
</svg>
