<svg width="105" height="82" viewBox="0 0 105 82" fill="none" xmlns="http://www.w3.org/2000/svg">
<path d="M12.8064 28.7222C11.8559 28.0201 11.3094 29.9434 9.55299 30.1076C10.8189 30.1076 12.2624 32.6047 12.6394 35.4465C13.0142 38.2714 11.6043 41.8914 10.6007 40.6818C10.3023 40.3224 9.63317 37.3281 9.62531 36.3175C9.62185 35.8905 8.35911 36.0716 7.52399 36.6187C6.58102 37.2366 5.50662 39.3992 5.77482 40.1394C5.8745 40.4151 6.34992 41.0978 6.83099 41.6562C7.31207 42.2143 7.78182 43.134 7.87458 43.7C8.74995 49.0345 9.03324 49.8835 10.5843 51.8213C11.4455 52.897 12.0775 54.8119 11.892 55.7828C11.7125 56.7217 10.6032 57.3046 9.51589 57.0317C9.03167 56.91 7.93212 55.8092 6.63039 54.1421C5.47392 52.6608 4.47152 51.5047 4.40361 51.5729C4.10791 51.225 3.79941 50.8668 3.48022 50.5009C3.71574 51.5635 3.94624 52.4146 4.10238 52.9394C8.32201 67.122 20.0923 77.7664 34.7116 80.6207C38.0399 81.2707 44.9243 81.3389 48.2981 80.7553C51.87 80.1375 56.2808 78.6408 59.7354 76.8743C71.1513 71.0367 79.3554 59.4214 81.0134 46.7502C81.6711 41.7237 79.811 40.9918 78.8835 41.3298C77.7992 41.7247 74.742 43.7787 73.1738 45.9387C73.6003 46.1812 74.074 46.4421 74.3821 46.7502C74.9009 47.269 75.5874 48.8206 75.5874 49.0848C75.5874 50.3532 74.9217 51.7987 74.3821 52.287C73.6004 52.9945 73.047 52.5668 72.3364 50.7061C71.8626 49.465 71.8355 49.2788 72.2748 47.7805C72.3989 47.1821 72.7255 46.5561 73.1738 45.9387C72.7751 45.7121 72.4176 45.5016 72.2748 45.2837C71.806 44.5687 71.8113 44.4335 72.3459 43.4412C72.6631 42.8523 73.0417 42.3702 73.1873 42.3702C73.3332 42.3702 73.4523 42.0165 73.4523 41.5842C73.4523 40.9553 73.2951 40.7981 72.6663 40.7981C71.9022 40.7981 71.7547 40.5613 71.8572 39.5005C71.8843 39.219 71.7085 38.9128 71.4664 38.82C71.2243 38.7273 70.9366 38.2025 70.8269 37.6538C70.548 36.26 69.8584 36.6184 69.7402 38.2192C69.6606 39.2958 69.4223 39.7114 68.3646 40.6167C67.0955 41.703 67.0852 41.7298 67.0459 44.0062C67.0081 46.2132 66.9776 46.3006 66.2453 46.3006C65.2609 46.3006 64.1777 44.2383 63.894 41.8235C63.6721 39.9344 63.2026 38.7961 62.7589 39.0706C62.2955 39.3571 60.5039 37.2762 60.6693 36.6439C60.7727 36.249 60.6378 36.0817 60.2168 36.0817C59.5301 36.0817 59.4669 36.6272 59.9514 38.372C60.5951 40.6896 59.5081 41.5411 57.8583 40.012C57.392 39.5797 56.0201 38.9051 55.1165 37.7563C53.6896 35.9424 52.5671 37.8349 53.8191 39.9441C54.0021 40.2526 54.9926 40.8459 56.0201 41.2625C57.0474 41.6794 57.6815 42.0151 57.8583 42.8622C57.9781 43.4364 56.2871 45.1177 55.1913 45.6843C54.4011 46.0928 54.1446 46.0968 53.2544 45.7142C51.9414 45.1498 50.0331 43.1595 49.4398 41.7351C49.1863 41.1264 48.6895 40.3661 48.3358 40.046C47.5718 39.3546 46.5719 39.5945 46.8228 40.4088C47.1388 41.4339 48.4704 44.4121 48.9653 45.2001C49.237 45.6324 49.7199 46.8851 50.0388 47.984C50.3576 49.083 50.4986 49.936 51 50.1284C51.5013 50.3209 53.8763 48.1371 54.3326 48.5934C54.7889 49.0497 54.3276 50.0948 53.9962 51.1651C53.434 52.9813 52.7199 53.5167 50.3761 55.5058C49.1961 56.5072 49.1681 56.5783 49.3665 58.0747C49.5134 59.1802 49.4212 59.9877 49.0395 60.9413C48.5323 62.2094 48.5345 62.288 49.0923 62.6955C49.4134 62.9304 49.815 63.056 50.1818 63.1225C50.5059 63.1812 50.89 63.2927 51.0878 63.6336C51.5207 63.3625 52.0398 62.8768 52.8535 62.0428C55.4916 58.9548 56.266 60.0314 54.7203 64.6393C53.4305 68.4841 52.2844 69.9258 51.2201 69.0426C50.9119 68.7869 50.784 68.1449 50.8273 67.072C50.9807 65.9469 51.2201 65.4348 51.2201 64.191C51.2201 63.957 51.1701 63.7755 51.0878 63.6336C50.4426 64.0377 49.9887 63.9653 49.036 63.8592C47.212 63.6558 46.9885 63.8576 46.5892 66.0665C46.4684 66.7347 46.0977 67.5729 45.7657 67.9295C45.4333 68.2864 44.7234 69.872 44.4596 70.4955C43.6872 72.3213 42.5554 74.4419 40.4641 74.4419C39.335 74.4419 38.8652 73.7379 38.8652 72.0463C38.8652 71.3979 38.5832 70.2845 38.2383 69.572C37.8933 68.8599 37.4472 67.4355 37.2463 66.4073C36.9548 64.9144 36.6708 64.3598 35.8376 63.6567C34.8711 62.8408 34.8082 62.6744 34.9827 61.3997C35.1956 59.8462 34.4463 58.2753 32.9836 57.21C32.2314 56.6619 32.1956 56.534 32.5292 55.5772C33.0917 53.9635 33.0081 53.5922 32.1308 53.8123C31.5428 53.9598 31.2309 53.8113 30.7539 53.1564C30.1638 52.3464 30.104 52.3316 29.3679 52.814C28.6878 53.2595 28.386 53.2686 26.7723 52.8935C24.649 52.3999 23.5589 51.489 22.1908 49.0651C21.3418 47.5602 21.272 47.2278 21.4642 45.5931C21.6512 43.9999 21.8383 43.6276 23.0391 42.4605C23.7884 41.732 24.4015 41 24.4015 40.834C24.4015 40.6679 24.7751 40.0881 25.2313 39.5457C25.6879 39.003 26.0944 38.2494 26.1347 37.8708C26.1749 37.4919 26.2259 37.0976 26.2479 36.9942C26.3318 36.6008 28.7929 35.6959 29.2752 35.8811C29.9323 36.1333 32.771 34.6922 33.2014 33.8882C33.4227 33.4749 34.6466 33.0122 35.2342 33.1597C35.8219 33.3072 36.087 33.6308 35.904 33.8728C35.654 34.2035 35.5018 34.2998 35.2342 34.5221C34.5274 35.1088 34.7774 36.2389 35.6141 36.2389C35.9873 36.2389 36.4001 36.3452 36.5309 36.4747C36.662 36.6043 37.084 36.7105 37.4692 36.7105C37.854 36.7105 38.2505 36.9228 38.3502 37.1822C38.4559 37.4579 38.9272 37.6538 39.4843 37.6538C40.2277 37.6538 40.4374 37.5155 40.4374 37.025C40.4374 36.3254 41.3275 36.1773 42.3252 36.7112C42.684 36.9033 43.7379 36.9341 45.0236 36.7898C45.0236 36.7898 46.0997 36.8294 46.6813 36.2389C47.1193 35.7941 47.5799 35.0186 47.5799 35.0186C48.1626 33.0173 47.8837 32.7437 45.8034 33.277C44.3731 33.6436 43.8516 33.6716 43.6691 33.1597C43.1928 31.8239 43.4617 31.3802 43.4549 30.1595C43.2548 30.1326 43.0471 30.092 42.807 30.0309C42.2411 29.9177 41.2102 29.7041 40.1226 28.6665C38.4527 27.074 37.6075 26.7303 37.6075 27.6443C37.6075 27.8254 38.1735 28.6845 38.8652 29.5532C40.2858 31.3373 39.721 31.6049 39.5158 31.8973C38.9204 32.7459 38.3895 34.0068 37.8103 33.7845C37.4522 33.6471 37.2931 33.2075 37.2931 32.3563C37.2931 31.2835 37.1158 30.9813 35.904 29.9881C34.3494 28.7143 33.753 28.7451 33.0335 30.1365C32.7785 30.6292 32.2887 31.1829 31.9447 31.3671C31.5749 31.5649 31.319 32.0249 31.319 32.4922C31.319 33.1169 31.0426 33.4062 30.0006 33.8728C28.7831 34.418 28.6089 34.4253 27.721 33.9706C26.5051 33.348 26.2825 32.9959 26.5878 32.1774C26.7223 31.8174 26.728 31.2395 26.6003 30.8936C26.2595 29.9695 26.9943 28.7844 28.396 27.9965C29.6143 27.3118 31.2968 25.1422 31.335 23.4467C29.1461 24.9435 28.1104 25.0667 27.7769 25.0195C27.1685 24.933 27.0742 24.7296 27.0742 23.5046C27.0742 22.7264 26.9534 21.7551 26.8057 21.3463C26.6041 20.7876 26.7016 20.3807 27.1987 19.7082C27.5625 19.2161 27.8603 18.613 27.8603 18.3678C27.8603 18.1225 28.0725 17.7458 28.3319 17.5304C28.9167 17.045 29.7468 17.6103 29.7468 18.4935C29.7468 18.8083 29.8965 19.1579 30.0798 19.2711C30.2713 19.3896 30.3269 19.8669 30.2106 20.3968C30.0443 21.1536 30.1748 21.4715 30.947 22.1931C31.2309 22.5475 31.3455 22.979 31.335 23.4467C31.6826 23.209 32.0593 22.9366 32.4669 22.6248C32.7867 22.3802 33.5174 21.9768 34.0907 21.729C34.9874 21.341 35.2569 21.3397 36.0162 21.7186C36.6259 22.0227 37.0683 22.0645 37.4447 21.8538C37.7446 21.6859 38.5408 21.6365 39.2139 21.7441C40.4871 21.9478 41.0864 21.6598 40.2784 20.9891C39.5313 20.1638 40.1682 19.4528 41.1986 19.6497C42.0491 19.8122 42.1954 19.5686 41.7086 18.7991C41.4876 18.4498 41.646 18.2426 42.3639 17.9408C43.1399 17.6144 43.2921 17.3861 43.21 16.672C43.1141 15.8372 43.0415 15.803 41.4593 15.8445C39.5579 15.8941 39.5064 15.7781 40.4669 13.6067C41.1898 11.9723 41.0008 11.4337 39.7661 11.6082C39.2067 11.6874 38.9964 11.9434 38.9168 12.6414C38.8586 13.152 38.5404 13.9139 38.2093 14.3346C37.5321 15.1958 37.4484 16.0168 37.9437 16.9424C38.1861 17.3952 38.4452 18.7658 38.187 19.0768C37.7839 19.9556 37.2657 20.6747 37.0359 20.6747C36.8057 20.6747 36.3803 20.1018 36.0907 19.4016C35.6483 18.3325 35.4502 18.1561 34.8563 18.3011C34.467 18.396 33.7941 18.5611 33.3609 18.668C31.7903 19.0551 31.1052 17.4814 32.1777 15.9501C32.477 15.5228 32.7383 15.0314 32.7587 14.8581C32.7789 14.6852 32.8169 14.388 32.8433 14.1981C32.8694 14.0082 33.4571 13.6303 34.1488 13.3586C35.6744 12.7593 35.836 11.7547 34.5944 10.5891C33.9246 9.96057 33.4697 9.8304 32.0003 9.84706C29.7324 9.87285 27.4496 11.0045 25.0474 13.2935C23.9934 14.2978 22.3276 15.4256 20.8454 16.1385C18.0441 17.4855 16.2425 19.2749 15.6303 21.318C15.4146 22.0384 15.1558 23.8973 15.0552 25.449C14.9329 27.3396 14.7068 28.4741 14.3703 28.8885C13.8742 29.4994 13.8556 29.4972 12.8064 28.7222Z" fill="#1E162C"/>
<path d="M60.6482 9.10137C62.036 9.10137 63.2432 9.67974 66.0395 11.049C70.9287 13.4435 73.038 14.1039 73.3137 13.3274C73.4885 12.8341 69.7171 9.78217 66.5692 7.87007C63.1496 5.79292 59.6983 4.38719 57.5367 4.19115C55.9133 4.04404 55.7744 4.08021 55.7744 4.65132C55.7744 5.1427 58.2289 7.73199 59.8827 9.16988C60.138 9.15507 60.3937 9.13177 60.6482 9.10137Z" fill="#B4804B"/>
<path d="M76.216 45.8187C75.7914 47.267 75.8176 47.447 76.2756 48.6467C76.9625 50.4454 77.4975 50.8588 78.2531 50.1749C78.7746 49.7029 79.4182 48.3055 79.4182 47.0794C79.4182 46.8241 78.7546 45.3243 78.2531 44.8228C78.0392 44.6089 77.7429 44.4186 77.4401 44.2415C76.7844 44.7855 76.3235 45.3009 76.216 45.8187Z" fill="#B4804B"/>
<path d="M41.0581 32.3748C41.235 32.1408 40.9788 31.828 40.4107 31.6855C39.8427 31.5429 38.6597 31.9902 38.4457 32.3897C38.0296 33.1669 35.2857 34.5599 34.6504 34.3161C34.1842 34.1371 31.8052 35.0118 31.7241 35.392C31.7028 35.492 31.6535 35.8732 31.6146 36.2394C31.5757 36.6054 31.1827 37.3339 30.7414 37.8585C30.3004 38.3828 29.9393 38.9433 29.9393 39.1038C29.9393 39.2643 29.3466 39.9719 28.6223 40.6761C27.4616 41.8043 27.2807 42.1642 27.0999 43.7043C26.9142 45.2845 26.9816 45.6057 27.8023 47.0604C29.1247 49.4035 30.1785 50.284 32.231 50.7612C33.7909 51.1238 34.0827 51.115 34.7401 50.6843C35.4516 50.218 35.5094 50.2323 36.0799 51.0153C36.5409 51.6484 36.8425 51.7919 37.4108 51.6493C38.2588 51.4366 38.3397 51.7955 37.7959 53.3553C37.4734 54.2802 37.5081 54.4039 38.2351 54.9337C39.6491 55.9635 40.3734 57.482 40.1676 58.9837C39.9989 60.2159 40.0597 60.3767 40.994 61.1655C41.7994 61.8451 42.0739 62.3812 42.3557 63.8243C42.5499 64.8182 42.9812 66.1951 43.3146 66.8835C43.648 67.5722 43.9207 68.6485 43.9207 69.2752C43.9207 70.9104 44.3747 71.591 45.4662 71.591C47.4877 71.591 48.5818 69.541 49.3285 67.7762C49.5835 67.1734 50.2697 65.6407 50.591 65.2957C50.9119 64.951 51.2703 64.1407 51.387 63.4949C51.773 61.3597 51.9891 61.1645 53.7523 61.3612C54.6731 61.4638 55.112 61.5337 55.7356 61.1431C55.5444 60.8136 55.1731 60.7058 54.8598 60.649C54.5052 60.5848 54.117 60.4633 53.8067 60.2363C53.2675 59.8424 53.2654 59.7664 53.7556 58.5406C54.1246 57.6187 54.2137 56.8382 54.0717 55.7696C53.8799 54.3231 53.907 54.2544 55.0477 53.2864C57.3133 51.3636 58.0036 50.846 58.547 49.0904C58.8674 48.0558 59.3133 47.0456 58.8722 46.6045C58.4311 46.1634 56.1353 48.2743 55.6507 48.0883C55.1661 47.9023 55.0298 47.0777 54.7216 46.0154C54.4134 44.9532 53.9465 43.7423 53.6839 43.3243C53.2055 42.5627 50.1791 36.1853 49.8737 35.1945C48.6308 35.334 47.612 35.3042 47.2652 35.1185C46.3008 34.6024 45.4404 34.7456 45.4404 35.4218C45.4404 35.896 45.2376 36.0297 44.5191 36.0297C43.9805 36.0297 43.5249 35.8404 43.4228 35.5738C43.3265 35.3231 42.9432 35.1179 42.5712 35.1179C42.1988 35.1179 41.7909 35.0152 41.6642 34.8899C41.5378 34.7647 41.1387 34.662 40.7779 34.662C39.9691 34.662 39.7275 33.5696 40.4107 33.0025C40.6694 32.7876 40.8165 32.6945 41.0581 32.3748Z" fill="#B4804B"/>
<path d="M10.6083 49.4846C10.6739 49.4187 11.6429 50.5363 12.7608 51.9681C14.0191 53.5797 15.082 54.6438 15.5501 54.7614C16.6011 55.0252 17.6734 54.4617 17.847 53.5541C18.0263 52.6155 17.4154 50.7645 16.5829 49.7248C15.0835 47.8516 14.8097 47.0309 13.9635 41.8742C13.8738 41.3271 13.4197 40.4381 12.9547 39.8986C12.4897 39.3588 12.0301 38.6989 11.9338 38.4324C11.6745 37.7169 12.7131 35.6264 13.6246 35.0291C14.4319 34.5003 15.6525 34.3252 15.6558 34.738C15.6634 35.7148 16.3102 38.6093 16.5987 38.9567C17.5689 40.126 18.9317 36.6267 18.5694 33.896C18.205 31.149 16.8096 28.7351 15.5859 28.7351C13.3811 28.7351 10.6943 32.1067 9.39859 36.4987C8.28213 40.2831 9.02145 45.3161 9.71569 48.4484C10.0242 48.8021 10.3224 49.1483 10.6083 49.4846Z" fill="#B4804B"/>
<path d="M36.2665 21.0846C35.52 20.387 35.3939 20.0797 35.5546 19.3481C35.6671 18.836 35.6133 18.3746 35.4282 18.26C35.251 18.1506 35.1063 17.8126 35.1063 17.5084C35.1063 16.6546 34.3039 16.1081 33.7386 16.5774C33.4878 16.7856 33.2827 17.1497 33.2827 17.3868C33.2827 17.6239 32.9948 18.2068 32.6432 18.6825C32.1626 19.3326 32.0684 19.7259 32.2633 20.2661C32.4061 20.6612 32.5228 21.6001 32.5228 22.3523C32.5228 23.5365 32.614 23.7331 33.2021 23.8167C33.5245 23.8623 34.5256 23.7433 36.6415 22.2964C36.6517 21.8443 36.5409 21.4271 36.2665 21.0846Z" fill="#B4804B"/>
<path fill-rule="evenodd" clip-rule="evenodd" d="M29.1968 6.33425C33.6988 4.03219 37.1765 3.01641 43.4647 2.1675C44.9617 1.96538 52.2368 2.33133 52.811 2.6377C53.545 3.02918 53.4845 3.32552 52.424 4.53308C51.8821 5.15039 50.8697 5.80812 49.9548 6.13699C49.102 6.44367 48.3369 6.8704 48.2543 7.08498C48.1719 7.29957 48.4625 7.80715 48.9001 8.21261C49.6029 8.86396 49.6956 9.1831 49.6956 10.9496C49.6956 13.7976 50.2217 13.8969 52.4116 11.4624C53.3417 10.4283 53.7818 10.013 54.5371 9.58461C54.636 9.52846 54.7428 9.45747 54.8578 9.38096C55.3798 9.03371 56.0731 8.57258 56.9902 8.86796C57.8821 9.15533 58.8793 9.22812 59.8827 9.16988C60.2585 9.49657 60.5929 9.76382 60.8478 9.93353C60.9631 9.71859 65.6117 13.2186 68.4281 15.4625C65.1081 17.1481 65.1004 18.5851 65.289 19.9907C65.4448 21.1523 66.1319 22.3021 67.0781 23.1786C67.9158 25.2608 67.7612 26.7282 67.6096 28.1675C67.3399 30.7289 67.0794 33.2017 72.4362 38.8938C71.2095 39.9439 71.1995 39.9697 71.1615 42.1703C71.125 44.3036 71.0955 44.3881 70.3877 44.3881C69.436 44.3881 68.3889 42.3946 68.1148 40.0603C67.9002 38.2342 67.4464 37.1339 67.0175 37.3993C66.5695 37.6762 64.8377 35.6647 64.9975 35.0535C65.0975 34.6717 64.9671 34.51 64.5602 34.51C63.8964 34.51 63.8353 35.0373 64.3036 36.7239C64.9258 38.9643 63.8751 39.7874 62.2803 38.3093C62.1368 38.1762 61.9046 38.0194 61.6264 37.8317C61.031 37.4297 60.2253 36.8857 59.6299 36.1288C58.2506 34.3754 57.1655 36.2048 58.3758 38.2436C58.5527 38.5418 59.5102 39.1153 60.5034 39.5181C61.4964 39.9211 62.1094 40.2456 62.2803 41.0644C62.3961 41.6194 60.7615 43.2447 59.7023 43.7924C58.9384 44.1872 58.6904 44.1912 57.83 43.8213C56.5607 43.2757 54.7161 41.3517 54.1425 39.9749C54.0493 39.7509 53.8161 38.8016 53.5442 37.6946C53.1016 35.8932 52.5565 33.674 52.3447 33.4824C52.9079 31.5478 52.6383 31.2834 50.6274 31.7988C49.2448 32.1532 48.7407 32.1803 48.5643 31.6855C48.238 30.7701 48.2736 30.2881 48.3196 29.6647C48.3385 29.4087 48.3592 29.1289 48.3573 28.7854C48.6821 28.8291 48.9864 28.8355 49.3846 28.8355C49.994 28.8355 50.3235 28.9196 50.7469 29.0277C51.239 29.1533 51.858 29.3114 53.1909 29.4074C54.345 29.4904 54.4103 29.4488 54.4802 28.5831C54.541 27.8284 54.3632 27.5509 53.4492 26.9728C52.6557 26.471 52.1 26.3279 51.4761 26.465C50.8132 26.6105 50.6074 26.5446 50.6074 26.1865C50.6074 25.9282 50.3089 25.5574 49.9439 25.362C48.9542 24.8325 48.0582 26.0242 48.2686 27.5908C48.3329 28.0703 48.3554 28.4569 48.3573 28.7854C48.1638 28.7593 47.9631 28.7201 47.731 28.661C47.1839 28.5516 46.1875 28.3451 45.1361 27.3421C43.5219 25.8027 42.7049 25.4705 42.7049 26.354C42.7049 26.5291 43.252 27.3595 43.9207 28.1993C45.1502 29.7434 44.8411 30.1123 44.6206 30.3755C44.5948 30.4063 44.5703 30.4356 44.5495 30.4651C44.4062 30.6695 44.2667 30.8985 44.1294 31.124C43.7154 31.8037 43.3213 32.4508 42.9009 32.2894C42.5547 32.1566 42.4009 31.7317 42.4009 30.9089C42.4009 29.8718 42.2295 29.5798 41.0581 28.6196C39.5554 27.3883 38.9789 27.4181 38.2834 28.7631C38.0369 29.2393 37.5634 29.7746 37.2309 29.9527C36.8734 30.1439 36.626 30.5885 36.626 31.0402C36.626 31.6441 36.3589 31.9238 35.3516 32.3748C34.1748 32.9018 34.0064 32.9088 33.148 32.4693C31.9727 31.8675 31.7575 31.5271 32.0526 30.736C32.1827 30.3879 32.1882 29.8293 32.0648 29.495C31.7353 28.6017 32.4456 27.4561 33.8006 26.6944C34.9782 26.0326 36.6047 23.9353 36.6415 22.2964C36.9776 22.0666 37.3417 21.8033 37.7357 21.5019C38.0448 21.2654 38.7512 20.8755 39.3053 20.636C40.1721 20.2609 40.4326 20.2597 41.1666 20.6259C41.756 20.9198 42.1836 20.9603 42.5474 20.7566C42.8374 20.5943 43.607 20.5466 44.2577 20.6505C45.4884 20.8475 46.0678 20.5691 45.2867 19.9208C44.5645 19.1229 45.1802 18.4357 46.1762 18.626C46.9984 18.7831 47.1397 18.5476 46.6692 17.8038C46.4555 17.4661 46.6087 17.2658 47.3026 16.9741C48.0528 16.6586 48.1999 16.4379 48.1205 15.7476C48.0278 14.9407 47.9576 14.9075 46.4282 14.9477C44.5902 14.9957 44.5404 14.8835 45.4689 12.7845C46.1677 11.2046 45.985 10.684 44.7915 10.8527C44.2507 10.9292 44.0474 11.1767 43.9705 11.8514C43.9143 12.345 43.6067 13.0815 43.2866 13.4881C42.6319 14.3206 42.5511 15.1142 43.0298 16.009C43.2641 16.4467 43.5146 17.7716 43.2651 18.0722C42.8754 18.9217 42.3745 19.6168 42.1523 19.6168C41.9298 19.6168 41.5186 19.063 41.2387 18.3862C40.811 17.3528 40.6195 17.1823 40.0454 17.3224C39.6691 17.4142 39.0187 17.5737 38.5998 17.6771C37.0817 18.0512 36.4194 16.53 37.4561 15.0498C37.7455 14.6367 37.998 14.1617 38.0178 13.9942C38.0373 13.827 38.074 13.5398 38.0996 13.3562C38.1248 13.1726 38.6929 12.8073 39.3615 12.5447C40.8363 11.9654 40.9925 10.9943 39.7922 9.86758C39.1448 9.26 38.705 9.13416 37.2847 9.15027C35.0923 9.1752 32.8857 10.2691 30.5636 12.4818C29.5448 13.4526 27.9345 14.5428 26.5017 15.2319C23.7939 16.5339 22.0523 18.2637 21.4605 20.2387C21.252 20.935 21.0019 22.7319 20.9046 24.2319C20.7864 26.0595 20.5679 27.1561 20.2426 27.5567C19.763 28.1473 19.7451 28.1451 18.7308 27.3959C17.812 26.7172 17.5053 26.6561 15.8075 26.8148C14.141 26.9704 13.8322 26.9133 13.2626 26.3437C12.3599 25.441 12.4465 24.189 13.5653 21.9636C16.9731 15.185 22.2955 9.86363 29.1968 6.33425Z" fill="#B4804B"/>
<path d="M1.05566 45.3393C4.03896 46.3521 2.68913 44.8485 7.20526 50.162C7.27317 50.0938 8.27557 51.2499 9.43204 52.7312C10.7338 54.3983 11.8333 55.4991 12.3175 55.6208C13.4048 55.8937 14.5141 55.3108 14.6937 54.3719C14.8792 53.4009 14.2472 51.4861 13.386 50.4104C11.8349 48.4726 11.5516 47.6236 10.6762 42.2891C10.5835 41.7231 10.1137 40.8034 9.63264 40.2453C9.15157 39.6869 8.67615 39.0042 8.57648 38.7285C8.30827 37.9883 9.38267 35.8257 10.3256 35.2078C11.1608 34.6607 12.4235 34.4796 12.427 34.9066C12.4348 35.9172 13.1039 38.9115 13.4023 39.2709C14.406 40.4805 15.8159 36.8605 15.4411 34.0356C15.0641 31.1938 13.6205 28.6966 12.3546 28.6966C10.0738 28.6966 7.29424 32.1846 5.95383 36.7281C4.4201 41.9269 6.27177 49.4034 6.90403 51.5285C11.1237 65.7111 22.894 76.3555 37.5133 79.2098C40.8415 79.8598 47.7259 79.928 51.0997 79.3444C54.6716 78.7266 59.0824 77.2299 62.5371 75.4634C73.953 69.6258 82.1571 58.0105 83.815 45.3393C84.4727 40.3128 82.6127 39.5809 81.6851 39.9189C80.2909 40.4267 75.6349 43.6775 75.0764 46.3696C74.6372 47.8679 74.6642 48.0541 75.1381 49.2951C75.8487 51.1559 76.4021 51.5836 77.1837 50.8761C77.7233 50.3878 78.3891 48.9423 78.3891 47.6738C78.3891 47.4097 77.7026 45.8581 77.1837 45.3393C76.5877 44.7433 75.3721 44.3237 75.0764 43.8728C74.6076 43.1578 74.613 43.0226 75.1475 42.0303C75.4648 41.4414 75.8433 40.9593 75.9889 40.9593C76.1348 40.9593 76.254 40.6056 76.254 40.1733C76.254 39.5444 76.0968 39.3872 75.4679 39.3872C74.7039 39.3872 74.5564 39.1504 74.6589 38.0896C74.6859 37.8081 74.5102 37.5019 74.268 37.4091C74.0259 37.3164 73.7382 36.7916 73.6285 36.2429C73.3496 34.8491 72.6601 35.2075 72.5418 36.8083C72.4623 37.8849 72.224 38.3005 71.1662 39.2058C69.8972 40.2921 69.8868 40.3189 69.8475 42.5953C69.8098 44.8023 69.7793 44.8897 69.047 44.8897C68.0625 44.8897 66.9793 42.8274 66.6957 40.4126C66.4737 38.5235 66.0043 37.3852 65.5606 37.6597C65.0971 37.9462 63.3055 35.8653 63.4709 35.233C63.5743 34.838 63.4395 34.6708 63.0184 34.6708C62.3317 34.6708 62.2685 35.2163 62.7531 36.9611C63.3967 39.2787 62.3097 40.1302 60.6599 38.6011C60.1936 38.1688 58.8218 37.4942 57.9181 36.3454C56.4912 34.5315 55.3687 36.424 56.6208 38.5332C56.8038 38.8417 57.7942 39.435 58.8218 39.8516C59.849 40.2685 60.4832 40.6042 60.6599 41.4513C60.7797 42.0255 59.0887 43.7068 57.9929 44.2734C57.2028 44.6819 56.9462 44.6859 56.0561 44.3033C54.743 43.7389 52.8348 41.7486 52.2414 40.3242C51.988 39.7155 51.4912 38.9552 51.1375 38.6351C50.3734 37.9437 49.3735 38.1836 49.6244 38.9979C49.9404 40.023 51.272 43.0012 51.767 43.7892C52.0386 44.2215 52.5216 45.4742 52.8404 46.5731C53.1592 47.6721 53.3003 48.5251 53.8016 48.7175C54.3029 48.91 56.6779 46.7262 57.1342 47.1825C57.5905 47.6388 57.1293 48.6839 56.7979 49.7542C56.2357 51.5704 55.5215 52.1058 53.1778 54.0949C51.9977 55.0963 51.9698 55.1674 52.1682 56.6638C52.315 57.7693 52.2229 58.5768 51.8412 59.5304C51.334 60.7985 51.3362 60.8771 51.894 61.2846C52.215 61.5195 52.6166 61.6451 52.9835 61.7116C53.4424 61.7948 54.0217 61.9837 54.0217 62.7801C54.0217 64.0239 53.7824 64.536 53.629 65.6611C53.5856 66.734 53.7136 67.376 54.0217 67.6317C55.086 68.5149 56.2321 67.0732 57.5219 63.2284C59.0677 58.6205 58.2932 57.5439 55.6552 60.6319C53.629 62.7087 53.4296 62.6256 51.8377 62.4483C50.0137 62.2449 49.7901 62.4467 49.3908 64.6556C49.2701 65.3238 48.8994 66.162 48.5673 66.5186C48.235 66.8755 47.5251 68.4611 47.2613 69.0846C46.4888 70.9104 45.357 73.031 43.2658 73.031C42.1366 73.031 41.6669 72.327 41.6669 70.6354C41.6669 69.987 41.3849 68.8736 41.0399 68.1611C40.695 67.449 40.2488 66.0246 40.0479 64.9964C39.7564 63.5035 39.4725 62.9489 38.6393 62.2458C37.6727 61.4299 37.6098 61.2635 37.7843 59.9888C37.9972 58.4353 37.2479 56.8644 35.7852 55.7991C35.0331 55.251 34.9972 55.1231 35.3308 54.1663C35.8934 52.5526 35.8097 52.1813 34.9325 52.4014C34.3445 52.5488 34.0326 52.4004 33.5556 51.7455C32.9654 50.9355 32.9057 50.9207 32.1696 51.4031C31.4895 51.8486 31.1876 51.8577 29.574 51.4826C27.4507 50.989 26.3605 50.0781 24.9925 47.6541C24.1435 46.1493 24.0737 45.8169 24.2658 44.1822C24.4529 42.589 24.64 42.2167 25.8408 41.0496C26.5901 40.3211 27.2032 39.5891 27.2032 39.423C27.2032 39.257 27.5767 38.6772 28.033 38.1348C28.4895 37.5921 28.8961 36.8384 28.9363 36.4599C28.9766 36.081 29.0275 35.6867 29.0495 35.5832C29.1335 35.1899 31.5945 34.285 32.0768 34.4702C32.734 34.7223 35.5726 33.2813 36.0031 32.4773C36.2244 32.064 37.4482 31.6013 38.0359 31.7488C38.6235 31.8963 38.8886 32.2199 38.7056 32.4619C38.4556 32.7926 38.3035 32.8889 38.0359 33.1112C37.329 33.6979 37.579 34.828 38.4157 34.828C38.7889 34.828 39.2018 34.9343 39.3326 35.0638C39.4637 35.1934 39.8857 35.2996 40.2708 35.2996C40.6557 35.2996 41.0522 35.5119 41.1519 35.7713C41.2575 36.047 41.7288 36.2429 42.286 36.2429C43.0293 36.2429 43.239 36.1046 43.239 35.6141C43.239 34.9145 44.1292 34.7664 45.1269 35.3003C45.4856 35.4924 46.5396 35.5232 47.8253 35.3789C47.8253 35.3789 48.9013 35.4185 49.4829 34.828C49.921 34.3832 50.3816 33.6077 50.3816 33.6077C50.9642 31.6064 50.6853 31.3328 48.6051 31.8661C47.1747 32.2327 46.6532 32.2607 46.4707 31.7488C45.8619 30.0411 46.4707 29.7915 46.1648 27.5128C45.9472 25.8923 46.8741 24.6594 47.8979 25.2071C48.2755 25.4093 48.5843 25.7929 48.5843 26.0602C48.5843 26.4306 48.7972 26.4988 49.4829 26.3482C50.1285 26.2064 50.7032 26.3545 51.5242 26.8736C52.4697 27.4716 52.6536 27.7587 52.5908 28.5394C52.5184 29.4349 52.4508 29.478 51.2569 29.3922C48.6915 29.2073 48.6825 28.8005 47.3193 28.8005C46.6621 28.8005 46.2519 28.7836 45.6087 28.62C45.0427 28.5068 44.0119 28.2932 42.9243 27.2556C41.2544 25.663 40.4092 25.3194 40.4092 26.2334C40.4092 26.4145 40.9751 27.2735 41.6669 28.1423C43.0875 29.9264 42.5226 30.1939 42.3174 30.4864C41.722 31.3349 41.1912 32.5959 40.612 32.3736C40.2538 32.2362 40.0948 31.7966 40.0948 30.9454C40.0948 29.8726 39.9174 29.5704 38.7056 28.5772C37.1511 27.3034 36.5546 27.3342 35.8352 28.7256C35.5802 29.2183 35.0903 29.772 34.7463 29.9562C34.3766 30.154 34.1206 30.614 34.1206 31.0813C34.1206 31.706 33.8442 31.9953 32.8022 32.4619C31.5848 33.0071 31.4106 33.0144 30.5226 32.5597C29.3067 31.9371 29.0841 31.585 29.3894 30.7665C29.524 30.4065 29.5297 29.8286 29.402 29.4827C29.0612 28.5586 29.796 27.3735 31.1977 26.5856C32.7519 25.7121 35.062 22.4215 33.7486 20.7822C32.9764 20.0606 32.8459 19.7427 33.0123 18.9858C33.1286 18.456 33.0729 17.9787 32.8815 17.8602C32.6981 17.747 32.5485 17.3973 32.5485 17.0826C32.5485 16.1994 31.7184 15.634 31.1336 16.1195C30.8741 16.3349 30.6619 16.7116 30.6619 16.9568C30.6619 17.2021 30.3641 17.8052 30.0004 18.2972C29.5032 18.9698 29.4058 19.3767 29.6073 19.9354C29.7551 20.3442 29.8758 21.3154 29.8758 22.0937C29.8758 23.3187 29.9702 23.5221 30.5786 23.6086C30.965 23.6633 32.2944 23.4892 35.2686 21.2139C35.5884 20.9693 36.3191 20.5658 36.8923 20.3181C37.789 19.9301 38.0585 19.9288 38.8179 20.3077C39.4275 20.6117 39.8699 20.6536 40.2463 20.4429C40.5463 20.275 41.3424 20.2256 42.0156 20.3332C43.2887 20.5369 43.8881 20.2489 43.08 19.5782C42.3329 18.7528 42.9699 18.0419 44.0003 18.2388C44.8508 18.4013 44.997 18.1576 44.5103 17.3882C44.2892 17.0389 44.4477 16.8317 45.1655 16.5298C45.9415 16.2035 46.0937 15.9752 46.0117 15.2611C45.9158 14.4263 45.8431 14.392 44.2609 14.4335C42.3596 14.4832 42.308 14.3672 43.2686 12.1958C43.9915 10.5614 43.8025 10.0228 42.5677 10.1973C42.0084 10.2765 41.798 10.5324 41.7185 11.2305C41.6603 11.7411 41.3421 12.503 41.011 12.9237C40.3337 13.7849 40.2501 14.6059 40.7453 15.5315C40.9877 15.9843 41.2468 17.3549 40.9887 17.6659C40.5856 18.5447 40.0674 19.2638 39.8376 19.2638C39.6074 19.2638 39.182 18.6909 38.8924 17.9907C38.45 16.9216 38.2519 16.7452 37.6579 16.8902C37.2687 16.9851 36.5958 17.1502 36.1625 17.2571C34.5919 17.6442 33.9068 16.0705 34.9793 14.5392C35.2786 14.1119 35.5399 13.6204 35.5604 13.4472C35.5805 13.2743 35.6185 12.9771 35.645 12.7872C35.6711 12.5973 36.2587 12.2193 36.9505 11.9477C38.4761 11.3484 38.6377 10.3438 37.396 9.1782C36.7263 8.54966 36.2713 8.41948 34.802 8.43615C32.534 8.46193 30.2513 9.59356 27.849 11.8826C26.7951 12.8869 25.1292 14.0147 23.647 14.7275C20.8458 16.0746 19.0441 17.864 18.4319 19.9071C18.2162 20.6275 17.9574 22.4864 17.8568 24.0381C17.7345 25.9287 17.5084 27.0632 17.172 27.4776C16.6758 28.0885 16.6573 28.0863 15.608 27.3113C14.6575 26.6091 14.3403 26.546 12.5839 26.7101C10.8599 26.8711 10.5404 26.812 9.95116 26.2227C9.01731 25.2889 9.10692 23.9937 10.2643 21.6915C13.7897 14.6791 19.2957 9.17411 26.4351 5.52297C31.0924 3.14149 34.69 2.09067 41.1953 1.21247C42.7438 1.00338 50.27 1.38195 50.8639 1.6989C51.6233 2.10388 51.5607 2.41045 50.4636 3.65967C49.903 4.29827 48.8557 4.9787 47.9092 5.31891C47.0269 5.63617 46.2355 6.07762 46.15 6.29961C46.0648 6.52159 46.3654 7.04669 46.8182 7.46614C47.5451 8.13996 47.641 8.47011 47.641 10.2976C47.641 13.2438 48.1853 13.3466 50.4508 10.828C51.4129 9.75832 51.8682 9.32868 52.6495 8.88546C53.2166 8.5638 54.0296 7.77119 55.1873 8.1441C56.3447 8.51701 57.6735 8.54063 58.9715 8.38556C60.4072 8.38556 61.656 8.98388 64.5488 10.4004C69.6067 12.8774 71.7888 13.5607 72.074 12.7573C72.2548 12.247 68.3533 9.08984 65.0968 7.11178C61.5592 4.96297 57.9889 3.50874 55.7526 3.30594C54.0733 3.15375 53.9296 3.19117 53.9296 3.78198C53.9296 4.40581 57.7537 8.29811 59.178 9.24643C59.3421 8.94049 68.3843 15.91 69.1523 16.76C70.7005 18.4736 71.5222 20.3262 71.5306 22.1235C71.5401 24.1013 70.816 24.7512 68.8492 24.5295C66.4589 24.2601 64.0847 21.9783 63.7724 19.6505C63.5715 18.1529 63.586 16.6209 67.3374 14.809L69.0872 14.3219C71.8337 13.5576 72.8663 13.9019 75.3201 16.4V16.4C83.5299 24.7568 91.9267 34.0895 103.633 33.6524L104.831 33.6077" stroke="#EFEDF1" stroke-width="1.2"/>
</svg>
