<svg width="38" height="42" viewBox="0 0 38 42" fill="none" xmlns="http://www.w3.org/2000/svg">
<path fill-rule="evenodd" clip-rule="evenodd" d="M18.7849 1.5C16.0517 1.5 13.836 3.71569 13.836 6.44888C13.836 8.14617 14.6904 9.64501 15.9948 10.537L16.3381 9.83191C15.2919 9.07392 14.6099 7.84156 14.6099 6.44887C14.6099 4.1431 16.4791 2.2739 18.7849 2.2739C21.0907 2.2739 22.9599 4.1431 22.9599 6.44887C22.9599 7.81561 22.3031 9.02799 21.2898 9.78905L21.6341 10.496C22.9051 9.59945 23.7338 8.12042 23.7338 6.44888C23.7338 3.71569 21.5181 1.5 18.7849 1.5ZM22.0759 11.9958C23.9655 10.8724 25.2338 8.80934 25.2338 6.44888C25.2338 2.88726 22.3465 0 18.7849 0C15.2233 0 12.336 2.88726 12.336 6.44888C12.336 8.84207 13.6397 10.9295 15.5729 12.042V12.6306H6.02578C4.79728 12.6306 3.75256 13.527 3.56596 14.7413L0.0390805 37.6908C-0.268744 39.6938 1.28108 41.5 3.30762 41.5H8.02909C8.44331 41.5 8.77909 41.1642 8.77909 40.75C8.77909 40.3358 8.44331 40 8.02909 40H3.30762C2.20031 40 1.35348 39.0131 1.52168 37.9186L5.04855 14.9691C5.12269 14.4867 5.53772 14.1306 6.02578 14.1306H31.2439C31.7312 14.1306 32.1458 14.4856 32.2208 14.967L35.7971 37.9149C35.9679 39.0105 35.1206 40 34.0118 40H14.9011C14.4869 40 14.1511 40.3358 14.1511 40.75C14.1511 41.1642 14.4869 41.5 14.9011 41.5H34.0118C36.0411 41.5 37.5917 39.689 37.2792 37.6839L33.7029 14.7361C33.5141 13.5242 32.4704 12.6306 31.2439 12.6306H22.0759V11.9958ZM20.5759 12.6306V11.7492L19.7323 10.0168C19.7225 9.99662 19.7111 9.97774 19.6983 9.96023C19.6286 9.86432 19.5162 9.80598 19.3951 9.80598H18.2537C18.1286 9.80598 18.0129 9.86822 17.9438 9.9697C17.9337 9.98448 17.9246 10.0002 17.9165 10.0168L17.0729 11.7492V12.6306H20.5759ZM20.3881 8.59051C21.0397 8.10194 21.4599 7.324 21.4599 6.44887C21.4599 4.97153 20.2622 3.7739 18.7849 3.7739C17.3076 3.7739 16.1099 4.97153 16.1099 6.44887C16.1099 7.34038 16.546 8.13109 17.2185 8.61764C17.5197 8.41818 17.878 8.30598 18.2537 8.30598H19.3951C19.7534 8.30598 20.0959 8.40804 20.3881 8.59051ZM8.14893 17.3793C8.01128 17.3793 7.8952 17.4818 7.87825 17.6184L5.6225 35.7921C5.6023 35.9548 5.72921 36.0984 5.89319 36.0984H31.5289C31.6916 36.0984 31.8181 35.9569 31.8 35.7952L29.757 17.6216C29.7415 17.4836 29.6248 17.3793 29.486 17.3793H8.14893ZM6.38967 17.4337C6.49987 16.5459 7.2543 15.8793 8.14893 15.8793H29.486C30.3884 15.8793 31.1468 16.5572 31.2476 17.454L33.2906 35.6276C33.4087 36.6785 32.5864 37.5984 31.5289 37.5984H5.89319C4.82749 37.5984 4.00265 36.6649 4.13392 35.6073L6.38967 17.4337Z" fill="#B4804B"/>
</svg>
