<svg width="161" height="32" viewBox="0 0 161 32" fill="none" xmlns="http://www.w3.org/2000/svg">
<path fill-rule="evenodd" clip-rule="evenodd" d="M25.9355 28.7173C31.0548 25.7617 33.1092 19.5362 30.9837 14.2021L10.8409 25.8316C14.3975 30.3394 20.8162 31.673 25.9355 28.7173ZM9.34983 26.6924C9.00929 26.2439 8.69307 25.7691 8.40414 25.2686L31.7145 11.8104C32.0035 12.3108 32.2566 12.8221 32.4747 13.3413C35.0624 19.4999 32.725 26.7672 26.7885 30.1947C20.8519 33.6222 13.3895 32.0127 9.34983 26.6924Z" fill="#C69A71"/>
<path fill-rule="evenodd" clip-rule="evenodd" d="M2.71711 22.6182C3.00105 25.1597 2.95339 26.4458 0 28.151L38.4124 5.97354C35.455 7.68101 34.3245 7.07362 32.2613 5.55449C32.1306 5.45829 31.9962 5.35842 31.8573 5.25526C31.7534 5.17803 31.647 5.09894 31.5377 5.01816C31.2169 4.78087 30.8721 4.52891 30.4958 4.26608C25.1521 -0.449382 17.1904 -1.47188 10.6776 2.28831C4.16475 6.0485 1.06941 13.4548 2.4813 20.4402C2.52148 20.8971 2.56777 21.3215 2.6132 21.7177C2.62779 21.845 2.64228 21.9693 2.65646 22.0909C2.67764 22.2725 2.69813 22.4482 2.71711 22.6182ZM7.3542 20.8824C5.35733 15.355 7.54131 9.02353 12.8091 5.98216C18.0769 2.94079 24.6521 4.21513 28.4405 8.70816L7.3542 20.8824Z" fill="#C69A71"/>
<path fill-rule="evenodd" clip-rule="evenodd" d="M65.6495 18.7436C65.6495 13.4142 61.8589 9.09383 56.5468 9.09383C53.8372 9.09383 51.5489 10.5372 49.9424 12.6292L49.9424 3.60675L46.4126 3.60675L46.4126 18.7436C46.4126 24.073 50.7189 28.3933 56.0311 28.3933C61.3432 28.3933 65.6495 24.073 65.6495 18.7436ZM55.982 12.1329C59.3904 12.1329 62.1535 15.0852 62.1535 18.727C62.1535 22.3688 59.3904 25.321 55.982 25.321C52.5736 25.321 49.8105 22.3688 49.8105 18.727C49.8105 15.0852 52.5736 12.1329 55.982 12.1329Z" fill="#EFEDF1"/>
<path fill-rule="evenodd" clip-rule="evenodd" d="M141.668 18.8056C141.668 24.135 145.459 28.4554 150.771 28.4554C153.481 28.4554 155.769 27.012 157.375 24.92L157.375 28.4554L160.905 28.4554L160.905 18.8056C160.905 13.4762 156.599 9.15586 151.287 9.15586C145.975 9.15586 141.668 13.4762 141.668 18.8056ZM151.336 25.4163C147.927 25.4163 145.164 22.4641 145.164 18.8222C145.164 15.1804 147.927 12.2282 151.336 12.2282C154.744 12.2282 157.507 15.1804 157.507 18.8222C157.507 22.4641 154.744 25.4163 151.336 25.4163Z" fill="#EFEDF1"/>
<path fill-rule="evenodd" clip-rule="evenodd" d="M69.2744 28.4329H72.8013L72.7862 9.09406L69.2593 9.09406L69.2744 28.4329Z" fill="#EFEDF1"/>
<path d="M76.5071 9.15656L76.517 21.9354C76.517 25.5583 79.1878 28.4954 82.8108 28.4954C86.4339 28.4954 89.3708 25.5583 89.3708 21.9354H86.3584C86.3584 23.6114 84.7432 25.2265 83.0671 25.2265C81.391 25.2265 80.0323 23.6114 80.0323 21.9354L80.0204 12.1688H85.6411V9.15656H76.5071Z" fill="#EFEDF1"/>
<path d="M95.7343 26.5507L89.1418 9.15656H92.8692L98.3105 23.8715C98.3931 24.0948 98.7089 24.0948 98.7915 23.8715L104.233 9.15656H107.96L101.368 26.5507C100.924 27.7212 99.8028 28.4954 98.551 28.4954C97.2992 28.4954 96.1779 27.7212 95.7343 26.5507Z" fill="#EFEDF1"/>
<path fill-rule="evenodd" clip-rule="evenodd" d="M118.12 28.4329C123.612 28.4329 128.064 24.1037 128.064 18.7635C128.064 13.4232 123.612 9.09406 118.12 9.09406C112.627 9.09406 108.175 13.4232 108.175 18.7635C108.175 24.1037 112.627 28.4329 118.12 28.4329ZM118.159 25.5242C121.676 25.5242 124.527 22.5149 124.527 18.8027C124.527 15.0906 121.676 12.0813 118.159 12.0813C114.642 12.0813 111.791 15.0906 111.791 18.8027C111.791 22.5149 114.642 25.5242 118.159 25.5242Z" fill="#EFEDF1"/>
<path d="M135.216 28.4329H131.689L131.682 18.3146C131.678 13.2234 135.804 9.09406 140.895 9.09406V12.0593C137.752 12.0593 135.206 14.6082 135.208 17.7507L135.216 28.4329Z" fill="#EFEDF1"/>
</svg>
