<svg width="26" height="36" viewBox="0 0 26 36" fill="none" xmlns="http://www.w3.org/2000/svg">
<path fill-rule="evenodd" clip-rule="evenodd" d="M22.1783 0.0803733C21.8254 0.214687 21.6393 0.420799 21.4372 0.900905C21.2262 1.40235 21.2267 2.46638 21.4383 2.96914C21.6649 3.50738 21.9387 3.88707 22.4424 4.36134C22.822 4.71875 22.8959 4.78178 23.3244 5.1139C23.8502 5.52136 24.1368 5.83427 24.3141 6.1945C24.426 6.42186 24.4513 6.53161 24.4728 6.88404C24.5318 7.85303 24.2441 8.47294 23.5283 8.91906C23.0163 9.23819 22.6715 9.29113 21.7781 9.18777C21.4387 9.14851 21.2996 9.1494 21.1181 9.19203C20.5041 9.33618 20.3652 9.30961 19.8116 8.94184C19.6681 8.84658 19.5406 8.76861 19.5282 8.76861C19.5158 8.76861 19.4047 8.70422 19.2813 8.62556C18.6252 8.20733 17.951 7.94548 17.1269 7.78881C16.7317 7.71369 16.4824 7.69682 15.7429 7.6952C14.9329 7.69346 14.7802 7.705 14.2448 7.80848C13.6361 7.9261 13.4947 7.96366 12.8607 8.17612C12.097 8.43206 11.6943 8.60981 10.0714 9.40747C8.81528 10.0248 8.8416 10.0136 8.34672 10.1454C7.81734 10.2865 7.19542 10.3443 6.20728 10.3443C5.20997 10.3443 5.12796 10.3739 5.17552 10.7169C5.19958 10.8902 5.19592 10.8979 5.08878 10.8979C5.02724 10.8979 4.94275 10.8796 4.90106 10.8573C4.73264 10.7671 4.08462 10.7222 3.66618 10.7717C2.81187 10.8727 2.15606 11.2049 1.48879 11.8746C0.999873 12.3653 0.600296 13.0776 0.517382 13.6065C0.475265 13.875 0.509888 14.0351 0.619034 14.0769C0.655913 14.0911 0.875993 14.0131 1.11081 13.9026C1.61685 13.6646 1.83165 13.6145 1.83024 13.7349C1.82973 13.7789 1.792 13.8972 1.74639 13.9976C1.63354 14.2463 1.5258 14.8389 1.55953 15.0255C1.59585 15.2264 1.68383 15.3952 1.76922 15.428C1.93172 15.4904 2.02477 15.4446 2.29881 15.167C2.82895 14.6302 3.19391 14.3621 3.19391 14.5095C3.19391 14.5285 3.15354 14.7037 3.10418 14.8989C2.99456 15.3322 3.00538 15.7426 3.13003 15.8803C3.24671 16.0093 3.27256 16 3.99642 15.5713C4.29145 15.3965 4.59198 15.2614 4.85473 15.1854C5.31465 15.0525 6.41079 14.8509 6.56427 14.8712C6.64961 14.8824 6.83166 14.9675 6.96883 15.0604C7.31905 15.2974 7.82616 15.5645 8.21083 15.7146C8.39096 15.7848 8.57668 15.8599 8.62352 15.8814C8.86396 15.9918 9.93851 16.2976 10.657 16.4601C11.0431 16.5473 11.0576 16.5795 10.8505 16.8896C10.7074 17.1039 9.91015 17.9213 9.58169 18.1904C8.85799 18.7834 8.56722 18.9888 8.26947 19.1174C7.65896 19.3811 7.43888 19.6309 7.24329 20.2823C7.16289 20.5501 7.0675 20.7551 6.93804 20.938C6.48885 21.5727 6.36331 21.751 6.31285 21.8262C6.28329 21.8702 6.16831 22.0349 6.05733 22.1922C5.94631 22.3495 5.76925 22.604 5.66385 22.7576C5.55845 22.9113 5.35723 23.1984 5.2167 23.3958C5.07617 23.5932 4.87496 23.8812 4.76956 24.0358C4.29546 24.7314 4.02806 25.0636 3.88085 25.1397C3.81642 25.1731 3.60736 25.2392 3.41629 25.2868C2.87669 25.4211 2.57923 25.6072 2.33356 25.9643C2.22999 26.1148 2.19835 26.2073 2.19609 26.3661C2.19247 26.6192 2.24949 26.6652 2.52319 26.6299C2.63446 26.6156 2.72547 26.6154 2.72547 26.6295C2.72547 26.6437 2.66048 26.7477 2.58102 26.8608C2.42788 27.0787 2.23071 27.5052 2.10773 27.8846C1.97465 28.2952 2.11139 28.9872 2.33999 29.0597C2.45863 29.0974 2.51701 29.0452 2.63451 28.7961C2.68744 28.6838 2.74842 28.5633 2.77006 28.5281C2.79169 28.493 2.83815 28.4002 2.87337 28.3219C2.97182 28.1028 3.33333 27.6618 3.85611 27.1228C4.25969 26.7068 4.46456 26.4421 4.70568 26.0253C4.87781 25.7279 5.52298 24.8016 5.94351 24.2483C5.97911 24.2015 6.1661 23.9524 6.35901 23.6947C6.64454 23.3134 6.94519 22.92 7.20518 22.5875C7.42717 22.3036 7.72702 21.9277 7.7963 21.8464C7.8443 21.79 7.96379 21.64 8.06191 21.513C8.20244 21.3311 8.30605 21.2506 8.55057 21.1336C8.72125 21.052 8.93052 20.9241 9.0156 20.8495C9.20979 20.6791 9.43221 20.335 9.49226 20.1121C9.55026 19.8966 9.55154 19.8955 10.484 19.1923C10.5236 19.1625 10.6769 19.0462 10.8247 18.9338C11.7562 18.2256 12.0713 18.013 12.3186 17.926C12.4645 17.8746 12.7337 17.7765 12.9167 17.7081C13.0997 17.6397 13.2866 17.5837 13.3319 17.5837C13.4379 17.5837 13.44 17.7092 13.3363 17.8442C13.2198 17.9959 13.0914 18.2511 12.9638 18.5845C12.901 18.7485 12.8115 18.9682 12.7648 19.0729C12.6718 19.2812 12.617 19.855 12.6655 20.1134C12.6982 20.2874 12.8975 20.5375 13.0779 20.6308C13.3177 20.7548 13.6544 20.6793 14.0935 20.4029C14.3086 20.2675 14.7624 20.1043 15.8843 19.759C16.1302 19.6833 16.5614 19.5481 16.8425 19.4585C18.6471 18.8832 19.1425 18.7723 19.2826 18.9124C19.3107 18.9405 19.3337 19.0137 19.3337 19.075C19.3337 19.415 19.5696 19.8478 19.7843 19.9017C20.0338 19.9643 20.136 19.8335 20.0594 19.5493C20.0136 19.3791 20.0343 19.2446 20.1062 19.2446C20.128 19.2446 20.258 19.3646 20.3952 19.5113C20.7565 19.8974 21.1951 20.1887 21.4528 20.2134C21.8452 20.2511 21.8497 20.0318 21.4684 19.4537C20.9593 18.6818 20.6964 18.2626 20.6964 18.2229C20.6964 18.1992 20.6816 18.1799 20.6635 18.1799C20.6454 18.1799 20.5949 18.1135 20.5511 18.0323C20.4587 17.8607 20.274 17.6851 20.0446 17.5509C19.9135 17.4742 19.8172 17.456 19.5416 17.456C19.3541 17.456 19.1108 17.4834 19.001 17.517C18.8912 17.5505 18.5906 17.639 18.3329 17.7136C18.0753 17.7882 17.7016 17.9023 17.5025 17.9671C17.3034 18.032 16.9393 18.1457 16.6934 18.2199C16.4475 18.2941 16.0163 18.428 15.7352 18.5174C14.6483 18.8632 14.3076 18.9596 14.2779 18.9299C14.2609 18.9129 14.2791 18.8475 14.3184 18.7843C14.3576 18.7213 14.429 18.5983 14.4772 18.5111C14.6044 18.2808 14.8221 18.0788 15.1274 17.9081C15.4342 17.7365 15.6375 17.5516 15.7884 17.3069C15.9519 17.0419 15.9812 17.0302 16.478 17.0296C16.9043 17.0291 18.1185 16.9366 18.4394 16.8802C19.7127 16.6563 20.803 16.0649 21.3711 15.2901C21.8182 14.6801 21.9783 14.0975 21.9887 13.0422C21.9946 12.4325 22.0046 12.3444 22.0762 12.2653C22.1206 12.2162 22.3793 12.0435 22.651 11.8815C23.8388 11.1734 24.567 10.5199 25.0811 9.7008C25.3205 9.31932 25.6107 8.71985 25.7391 8.34144C25.9702 7.6605 25.966 6.67533 25.7288 5.95189C25.4828 5.20129 25.0569 4.67889 24.0394 3.87983C23.3158 3.31157 23.1736 3.17598 23.0536 2.93959C22.861 2.55994 22.9458 2.41017 23.4432 2.2512C23.7042 2.16777 23.8685 2.15261 24.7633 2.12928C25.3254 2.11463 25.8093 2.08741 25.8386 2.06889C25.9214 2.01638 25.9015 1.88228 25.796 1.78216L25.7002 1.6912L25.796 1.62626C25.8506 1.58925 25.8918 1.51745 25.8918 1.45937C25.8918 1.33097 25.8175 1.29797 24.9337 1.03403C24.2235 0.821994 24.1251 0.777876 23.6905 0.476799C23.5454 0.37634 23.4128 0.294151 23.3957 0.294151C23.3787 0.294151 23.3345 0.268004 23.2975 0.236065C23.195 0.147573 22.7006 -0.00445648 22.53 0.000100136C22.4467 0.00235715 22.2884 0.0384695 22.1783 0.0803733ZM8.6874 30.681C7.91401 30.8471 7.2326 31.3871 6.884 32.1101C6.778 32.33 6.6709 32.6236 6.64599 32.7626C6.38605 34.2137 7.20662 35.5387 8.60223 35.9214C8.98477 36.0262 9.83839 36.0262 10.2197 35.9213C11.0186 35.7015 11.6338 35.2046 11.9652 34.5114C12.1727 34.0775 12.2299 33.8223 12.2316 33.3246C12.2333 32.8255 12.1744 32.5647 11.9561 32.1053C11.62 31.3981 10.9086 30.8474 10.114 30.6793C9.74462 30.6012 9.05525 30.602 8.6874 30.681ZM13.9516 30.7175C13.2726 30.963 12.8958 31.5162 12.89 32.2756C12.8869 32.6795 12.9433 32.8941 13.1211 33.1544C13.2874 33.3978 13.5503 33.5595 14.0858 33.7476C14.8661 34.0217 14.9985 34.1149 14.9985 34.3902C14.9985 34.5885 14.8197 34.7683 14.5771 34.8139C14.2687 34.8717 13.7645 34.7088 13.4307 34.4436C13.3027 34.3419 13.2614 34.3277 13.2212 34.3715C13.1938 34.4016 13.0534 34.65 12.9094 34.9236L12.6476 35.4209L12.7749 35.5117C12.964 35.6463 13.488 35.8766 13.755 35.9425C14.0574 36.0171 14.8172 36.0168 15.1178 35.942C15.9666 35.7308 16.4362 35.1351 16.4374 34.268C16.4386 33.462 16.0833 33.0379 15.1236 32.6998C14.8609 32.6073 14.5898 32.5025 14.5211 32.4671C14.1771 32.2891 14.2687 31.9 14.6771 31.8043C14.9011 31.7518 15.231 31.8241 15.4759 31.9795C15.5851 32.0487 15.6816 32.1053 15.6906 32.1053C15.7195 32.1053 16.225 31.1206 16.225 31.0643C16.225 30.9987 15.8312 30.8162 15.4789 30.7186C15.3388 30.6798 15.0038 30.6398 14.7345 30.6297C14.2929 30.6132 14.216 30.6219 13.9516 30.7175ZM0.786096 30.7958C0.774896 30.8251 0.770722 31.9797 0.776812 33.3616L0.787841 35.8741L1.44468 35.8859C1.94165 35.8948 2.10994 35.8844 2.13605 35.8433C2.15504 35.8134 2.17084 35.1316 2.17122 34.3283L2.17186 32.8676L3.3536 34.3708L4.53534 35.8741L5.20606 35.8858L5.87677 35.8976V33.319V30.7404L5.20606 30.7522L4.53534 30.7639L4.51405 32.2543L4.49275 33.7448L3.32166 32.2457L2.15057 30.7465L1.47853 30.7445C0.978623 30.7431 0.801256 30.7562 0.786096 30.7958ZM16.6508 31.3383V31.935H17.1827H17.7146L17.7257 33.9045L17.7368 35.8741L18.4075 35.8858L19.0782 35.8976V33.9175V31.9375L19.6212 31.9256L20.1641 31.9137V31.3388V30.7639L18.4075 30.7528L16.6508 30.7416V31.3383ZM20.579 33.305L20.59 35.8741L21.2599 35.8858L21.9298 35.8976L21.9412 34.9612L21.9527 34.0248L22.5499 34.9494L23.147 35.8741L23.9521 35.8857C24.3948 35.8921 24.7734 35.881 24.7933 35.8611C24.8132 35.8413 24.482 35.3702 24.0572 34.8143C23.6325 34.2585 23.2918 33.7986 23.3002 33.7924C23.3086 33.7863 23.4105 33.746 23.5267 33.7028C23.82 33.594 24.1089 33.2949 24.2279 32.9767C24.424 32.4527 24.3286 31.7562 24.0021 31.3268C23.8604 31.1404 23.5116 30.9046 23.2521 30.8199C23.1589 30.7895 22.6249 30.7644 21.8352 30.7535L20.568 30.7359L20.579 33.305ZM21.9314 32.4247V32.9996L22.1763 32.9987C22.468 32.9975 22.7451 32.8843 22.8508 32.723C22.8934 32.658 22.925 32.5286 22.925 32.4197C22.925 32.0605 22.6563 31.85 22.1976 31.8499L21.9314 31.8498V32.4247ZM8.92851 32.0435C8.23446 32.298 7.87534 33.0538 8.11139 33.7632C8.22007 34.0899 8.57651 34.4464 8.92162 34.5737C9.59468 34.822 10.3811 34.5054 10.6959 33.8595C10.7721 33.703 10.7935 33.5857 10.7943 33.319C10.7952 33.0245 10.7782 32.9445 10.6689 32.7288C10.5171 32.4291 10.2401 32.1789 9.9314 32.0625C9.66413 31.9617 9.17674 31.9525 8.92851 32.0435Z" fill="white"/>
</svg>
