<svg width="90" height="82" viewBox="0 0 90 82" fill="none" xmlns="http://www.w3.org/2000/svg">
<path d="M27.5211 79.658C29.8959 80.3635 33.504 80.7118 37.704 81.1156C38.7392 81.2151 41.0169 81.0893 42.6794 80.9539C48.3324 80.4931 52.0037 79.7676 57.2946 77.1652C61.6831 75.0065 62.5993 73.9649 66.1461 70.418C70.4759 66.0882 71.663 61.244 73.7152 54.6973C75.528 48.9144 74.9192 41.6729 72.8754 35.007C73.1443 44.8579 74.9905 55.5217 62.3875 67.63C58.268 71.5878 52.9293 74.2839 46.881 75.7904C43.7666 76.5662 37.4958 76.7432 33.9702 76.1551C19.271 73.703 7.93916 62.2282 5.76637 47.5961C4.25484 37.4168 7.55984 26.7367 14.4672 19.48C15.6062 18.1576 16.3712 17.5367 16.4926 17.4311C16.6826 17.266 17.2088 16.8126 17.8531 16.2716C21.8033 12.9548 27.1423 10.4191 32.7529 9.19555C35.7918 8.53272 43.1339 8.53116 46.2302 9.19269C54.2681 10.9101 60.7173 14.9293 66.0277 21.5304C68.8631 25.055 71.2971 29.8594 72.8754 35.007C72.7179 29.2386 73.1013 23.7489 77.2433 18.411C79.7235 15.2148 78.6677 14.0122 76.4656 12.7563C70.9425 16.1346 68.532 15.1797 63.6575 11.4589C57.5453 6.37243 52.7446 5.37038 44.8412 4.40452C41.2301 3.96351 34.0762 3.96897 30.8287 4.66486C13.8772 8.29868 4.1921 18.0403 1.02611 35.0118C0.278934 39.0182 0.347403 47.0369 1.16174 50.8793C4.46233 66.4535 12.4191 75.1715 27.5211 79.658Z" fill="#1E162C"/>
<path d="M78.2766 4.66615C74.5538 6.29067 71.3026 7.74571 71.0522 7.89957C70.4037 8.29763 70.4768 9.38871 71.1824 9.83545C71.5044 10.0393 72.8494 10.7371 73.2742 10.9949C74.0846 11.4869 74.8563 11.8894 75.5473 12.2558C75.8695 12.4266 76.1773 12.5919 76.4656 12.7563C76.5927 12.6785 76.7214 12.5985 76.8519 12.5161C79.5972 10.7832 81.186 15.1416 83.9631 16.8238C84.7494 17.405 85.3782 17.4634 85.5661 16.1771C87.5408 2.65555 87.5538 2.48008 86.6335 1.86542C85.9821 1.43039 84.7278 1.85084 78.2766 4.66615Z" fill="#1E162C"/>
<path d="M48.3308 24.5343C43.2082 32.5715 41.5958 34.746 40.2707 36.8363C38.2588 40.01 37.0953 41.4919 35.0834 44.6656C31.9325 49.5356 30.2286 50.567 26.8179 56.4177C25.4271 58.8038 24.9737 59.785 24.9737 60.4088C24.9737 61.6524 25.6858 62.2006 27.5244 62.3722C29.806 62.5855 30.0104 62.4751 31.7992 60.0636C33.2325 58.1312 40.7204 46.8898 44.1349 41.5445L45.471 39.4527L49.8808 32.4766C54.9808 24.4001 55.8555 22.9285 55.8555 22.4255C55.8555 22.1973 55.6046 21.7599 55.298 21.4534C54.7942 20.9493 54.5569 20.8959 52.8166 20.8959C51.4328 20.8959 50.7993 20.989 50.5611 21.2272C50.3787 21.4096 49.3751 22.8978 48.3308 24.5343Z" fill="#89633E"/>
<path fill-rule="evenodd" clip-rule="evenodd" d="M25.6488 20.0356C22.185 21.2513 19.3087 24.5713 18.2725 28.549C17.7834 30.4266 17.8354 33.4707 18.387 35.2564C19.1381 37.6886 21.0283 39.6964 23.2477 40.42C24.5045 40.8299 26.6924 40.7897 28.1527 40.3299C28.531 40.2108 28.892 40.0081 29.2181 39.7711C30.0376 40.1073 30.6475 40.2624 30.6475 40.2624C31.5081 40.5428 32.218 40.6016 32.9372 40.5426C33.1917 40.3617 33.3185 40.2624 33.3185 40.2624C33.8883 39.8757 34.6435 39.1523 35.0834 38.677C37.971 35.5568 38.7086 29.3555 36.6988 25.0954C34.6883 20.8339 29.7787 18.5859 25.6488 20.0356ZM29.2181 39.7711C29.8667 39.2998 30.3775 38.6924 30.6132 38.3351C32.1069 36.07 32.7834 33.3847 32.6564 30.2252C32.5831 28.3961 32.4632 27.8185 31.9325 26.7335C31.0971 25.0264 30.0789 24.2539 28.4908 24.1222C26.2407 23.9355 24.3778 25.2925 23.3596 27.8598C22.9434 28.9089 22.8326 29.6325 22.8265 31.3413C22.8194 33.2807 22.8839 33.6224 23.4643 34.7271C24.181 36.0909 25.921 37.8998 27.4481 38.8685C28.0529 39.2521 28.6806 39.5506 29.2181 39.7711Z" fill="#89633E"/>
<path fill-rule="evenodd" clip-rule="evenodd" d="M48.2958 43.2117C45.5886 44.451 43.847 47.0787 43.3311 50.7016C42.6015 55.8242 44.7601 60.5262 48.7402 62.4856C50.5872 63.3948 53.6132 63.6339 55.6666 63.0326C59.4416 61.9274 62.2133 58.6219 62.8922 54.415C63.011 53.6797 63.1598 52.3359 63.0026 51.3236C62.5048 48.1191 61.379 45.7569 59.4123 43.7902C58.3703 42.7482 57.4997 42.1699 55.5423 41.2193C53.0224 39.9954 52.0121 40.6839 49.3265 42.5141C49.0082 42.731 48.6664 42.964 48.2958 43.2117ZM52.1183 59.1744C55.7733 59.8601 58.1164 56.952 58.1235 51.721C58.1249 50.7667 57.9912 49.8847 57.7725 48.7669C56.8903 47.9885 56.1673 47.4428 55.8042 47.1688C55.7318 47.1141 55.6738 47.0703 55.6316 47.0376C53.6161 45.5775 51.7092 45.5401 50.1707 46.93C46.788 49.9859 48.1307 58.4262 52.1183 59.1744Z" fill="#89633E"/>
<path d="M77.0804 21.4423C77.7391 19.8793 79.5136 17.8446 79.5136 17.8446C82.0768 14.0549 80.6009 13.1651 77.8176 11.6894C77.1265 11.323 76.3549 10.9205 75.5444 10.4285C75.1197 10.1707 73.7747 9.47289 73.4526 9.26905C72.7471 8.8223 72.6739 7.73122 73.3224 7.33316C73.5729 7.1793 76.824 5.72426 80.5469 4.09975C86.9981 1.28443 88.2524 0.863987 88.9038 1.29901C89.8241 1.91368 89.811 2.08915 87.8364 15.6107C87.6484 16.897 87.0197 16.8386 86.2333 16.2574C83.4562 14.5752 81.8674 10.2168 79.1221 11.9497C73.3224 15.6107 70.9144 14.6989 65.9278 10.8925C59.8155 5.80602 55.0149 4.80397 47.1115 3.83812C43.5003 3.3971 36.3464 3.40257 33.099 4.09845C16.1475 7.73227 6.46234 17.4739 3.29635 34.4454C2.54918 38.4518 2.61765 46.4705 3.43199 50.3128C6.73257 65.8871 14.6893 74.6051 29.7914 79.0916C32.1662 79.7971 35.7742 80.1454 39.9743 80.5492C41.0095 80.6487 43.2871 80.5229 44.9496 80.3875C50.6026 79.9267 54.274 79.2012 59.5648 76.5988C63.9534 74.4401 64.8695 73.3985 68.4164 69.8516C72.7462 65.5218 73.9332 60.6776 75.9854 54.1309C79.1981 43.8823 74.8051 29.0529 68.2979 20.964C62.9875 14.3629 56.5384 10.3437 48.5004 8.62628C45.4042 7.96476 38.0621 7.96632 35.0231 8.62914C29.4126 9.85274 24.0735 12.3884 20.1234 15.7052C19.4791 16.2462 18.9528 16.6996 18.7629 16.8647C18.6414 16.9703 17.8765 17.5912 16.7374 18.9136C9.83009 26.1703 6.52508 36.8504 8.03662 47.0297C10.2094 61.6618 21.5412 73.1366 36.2405 75.5887C39.766 76.1768 46.0368 75.9998 49.1513 75.224C55.1995 73.7175 61.5375 71.8488 64.6577 67.0636C71.8751 55.9949 59.0434 46.9434 57.9 46.0563C55.8845 44.5962 53.9776 44.5588 52.4392 45.9487C49.0565 49.0046 50.3991 57.4449 54.3868 58.1931C58.0417 58.8789 60.3849 55.9707 60.3919 50.7397C60.3935 49.647 60.218 48.649 59.9405 47.2834C59.6529 45.8678 58.3156 43.7622 57.4627 43.0322C55.6799 41.5062 52.8615 41.1788 50.5642 42.2304C47.8571 43.4697 46.1154 46.0974 45.5995 49.7203C44.8699 54.8429 47.0285 59.5449 51.0086 61.5043C52.8556 62.4135 55.8816 62.6526 57.935 62.0513C61.7101 60.9461 64.4817 57.6406 65.1607 53.4337C65.2794 52.6984 65.4282 51.3546 65.271 50.3423C64.7733 47.1378 63.6475 44.7756 61.6808 42.8089C60.6387 41.7669 59.7681 41.1886 57.8108 40.238C54.9921 38.869 53.3066 38.3674 50.2697 37.9936C48.8908 37.8239 47.5362 37.8872 45.8413 38.2291C43.2564 38.7507 41.2574 39.946 38.6979 42.501C35.0715 46.1208 32.497 49.5857 29.0864 55.4364C27.6955 57.8225 27.2421 58.8037 27.2421 59.4275C27.2421 60.6711 27.9542 61.2193 29.7928 61.3909C32.0744 61.6042 32.2788 61.4938 34.0676 59.0823C35.5009 57.1499 42.9889 45.9085 46.4033 40.5632L47.7394 38.4714L52.1492 31.4953C57.2492 23.4188 58.1239 21.9472 58.1239 21.4442C58.1239 21.216 57.873 20.7786 57.5664 20.4721C57.0626 19.968 56.8253 19.9146 55.085 19.9146C53.7012 19.9146 53.0677 20.0077 52.8295 20.2459C52.6472 20.4283 51.6435 21.9165 50.5992 23.553C45.4767 31.5902 44.1 33.973 42.5037 35.5576C40.681 37.3671 39.0607 38.8177 36.7214 39.3134C35.3746 39.5988 34.3564 39.7505 32.9159 39.2811C32.9159 39.2811 31.2435 38.8558 29.7165 37.8871C28.1894 36.9185 26.4494 35.1096 25.7327 33.7458C25.1523 32.6411 25.0878 32.2994 25.0949 30.36C25.101 28.6512 25.2118 27.9276 25.6281 26.8785C26.6462 24.3112 28.5091 22.9542 30.7592 23.1409C32.3473 23.2726 33.3655 24.0451 34.2009 25.7522C34.7316 26.8372 34.8515 27.4148 34.9248 29.2439C35.0518 32.4034 34.3753 35.0887 32.8816 37.3538C32.5274 37.8908 31.5517 38.9926 30.4211 39.3486C28.9608 39.8084 26.7729 39.8486 25.5161 39.4387C23.2967 38.7151 21.4065 36.7073 20.6554 34.2751C20.1038 32.4894 20.0518 29.4453 20.541 27.5677C21.5771 23.59 24.4534 20.27 27.9172 19.0543C32.0472 17.6046 36.9567 19.8526 38.9672 24.1141C40.977 28.3742 40.2395 34.5755 37.3518 37.6957C36.9119 38.171 36.1567 38.8944 35.5869 39.2811C35.5869 39.2811 31.6111 41.3304 24.6307 45.0697C20.63 47.2128 13.6919 52.2606 2.32324 55.8099" stroke="#EFEDF1"/>
</svg>
