<svg width="50" height="43" viewBox="0 0 50 43" fill="none" xmlns="http://www.w3.org/2000/svg">
<path fill-rule="evenodd" clip-rule="evenodd" d="M12.2984 0.583008H40.1449L49.2896 9.5802V42.083H21.1887C20.7745 42.083 20.4387 41.7472 20.4387 41.333C20.4387 40.9188 20.7745 40.583 21.1887 40.583H47.7896V10.6444H39.0878V2.08301H13.7984V18.1751C13.7984 18.5893 13.4626 18.9251 13.0484 18.9251C12.6342 18.9251 12.2984 18.5893 12.2984 18.1751V0.583008ZM40.5878 3.12305L46.7079 9.14444H40.5878V3.12305ZM17.7721 14.105C17.7721 13.6907 18.1079 13.355 18.5221 13.355H42.7852C43.1994 13.355 43.5352 13.6907 43.5352 14.105C43.5352 14.5192 43.1994 14.855 42.7852 14.855H18.5221C18.1079 14.855 17.7721 14.5192 17.7721 14.105ZM17.7721 18.4702C17.7721 18.056 18.1079 17.7202 18.5221 17.7202H42.7852C43.1994 17.7202 43.5352 18.056 43.5352 18.4702C43.5352 18.8844 43.1994 19.2202 42.7852 19.2202H18.5221C18.1079 19.2202 17.7721 18.8844 17.7721 18.4702ZM5.76755 20.2415C6.18176 20.2415 6.51755 20.5772 6.51755 20.9915V21.8172H12.161V21.3591C12.161 20.9449 12.4968 20.6091 12.911 20.6091C13.3252 20.6091 13.661 20.9449 13.661 21.3591V21.8172H19.2237V20.9915C19.2237 20.5772 19.5595 20.2415 19.9737 20.2415C20.3879 20.2415 20.7237 20.5772 20.7237 20.9915V21.8172H21.8404C22.2546 21.8172 22.5904 22.153 22.5904 22.5672C22.5904 22.9814 22.2546 23.3172 21.8404 23.3172H20.7237V25.303L25.0308 29.6102V29.9208C25.0308 32.7138 22.7667 34.9779 19.9737 34.9779C17.1807 34.9779 14.9166 32.7138 14.9166 29.9208V29.6102L19.2237 25.303V23.3172H13.661V36.0657C15.9989 36.3956 17.8484 38.2452 18.1783 40.583H18.6363C19.0505 40.583 19.3863 40.9188 19.3863 41.333C19.3863 41.7472 19.0505 42.083 18.6363 42.083H7.08068C6.66646 42.083 6.33068 41.7472 6.33068 41.333C6.33068 40.9188 6.66646 40.583 7.08068 40.583H7.64375C7.97364 38.2452 9.82319 36.3956 12.161 36.0657V23.3172H6.51755V25.303L10.8247 29.6102V29.9208C10.8247 32.7138 8.56051 34.9779 5.76755 34.9779C2.97459 34.9779 0.710449 32.7138 0.710449 29.9208V29.6102L5.01755 25.303V23.3172H3.92914C3.51492 23.3172 3.17914 22.9814 3.17914 22.5672C3.17914 22.153 3.51492 21.8172 3.92914 21.8172H5.01755V20.9915C5.01755 20.5772 5.35334 20.2415 5.76755 20.2415ZM5.76755 26.6744L3.27111 29.1708H8.26399L5.76755 26.6744ZM9.24544 30.6708H2.28966C2.63399 32.2752 4.06031 33.4779 5.76755 33.4779C7.47479 33.4779 8.90111 32.2752 9.24544 30.6708ZM9.1649 40.583H16.6572C16.3086 38.8325 14.7639 37.5133 12.911 37.5133C11.0581 37.5133 9.5134 38.8325 9.1649 40.583ZM19.9737 26.6744L17.4773 29.1708H22.4701L19.9737 26.6744ZM23.4516 30.6708H16.4958C16.8401 32.2752 18.2665 33.4779 19.9737 33.4779C21.6809 33.4779 23.1073 32.2752 23.4516 30.6708ZM24.6096 22.7248C24.6096 22.3106 24.9454 21.9748 25.3596 21.9748H42.7852C43.1994 21.9748 43.5352 22.3106 43.5352 22.7248C43.5352 23.139 43.1994 23.4748 42.7852 23.4748H25.3596C24.9454 23.4748 24.6096 23.139 24.6096 22.7248ZM26.3776 27.0319C26.3776 26.6177 26.7134 26.2819 27.1276 26.2819H42.7852C43.1994 26.2819 43.5352 26.6177 43.5352 27.0319C43.5352 27.4461 43.1994 27.7819 42.7852 27.7819H27.1276C26.7134 27.7819 26.3776 27.4461 26.3776 27.0319ZM26.6313 31.1814C26.6313 30.7672 26.967 30.4314 27.3813 30.4314H42.7852C43.1994 30.4314 43.5352 30.7672 43.5352 31.1814C43.5352 31.5956 43.1994 31.9314 42.7852 31.9314H27.3813C26.967 31.9314 26.6313 31.5956 26.6313 31.1814ZM26.7453 35.6461C26.7453 35.2319 27.081 34.8961 27.4953 34.8961H42.7852C43.1994 34.8961 43.5352 35.2319 43.5352 35.6461C43.5352 36.0603 43.1994 36.3961 42.7852 36.3961H27.4953C27.081 36.3961 26.7453 36.0603 26.7453 35.6461Z" fill="#B4804B"/>
</svg>
