<svg width="25" height="24" viewBox="0 0 25 24" fill="none" xmlns="http://www.w3.org/2000/svg">
<path d="M6.83283 17.8334C6.56434 17.565 6.54197 17.1436 6.76571 16.8496L6.83283 16.7728L17.4394 6.16618C17.7323 5.87328 18.2072 5.87328 18.5001 6.16618C18.7686 6.43466 18.7909 6.85606 18.5672 7.15003L18.5001 7.22684L7.89349 17.8334C7.6006 18.1263 7.12572 18.1263 6.83283 17.8334Z" fill="#78619E"/>
<path d="M9.43359 7.46482C9.01938 7.46571 8.68287 7.13065 8.68198 6.71644C8.68117 6.33988 8.958 6.02754 9.31955 5.97319L9.43036 5.96482L17.968 5.94644C18.3456 5.94562 18.6585 6.22406 18.7116 6.58682L18.7196 6.69799L18.7019 15.2363C18.701 15.6505 18.3646 15.9856 17.9504 15.9847C17.5738 15.984 17.2626 15.7058 17.2098 15.344L17.2019 15.2332L17.2176 7.44802L9.43359 7.46482Z" fill="#78619E"/>
</svg>
