<svg width="66" height="66" viewBox="0 0 66 66" fill="none" xmlns="http://www.w3.org/2000/svg">
<path fill-rule="evenodd" clip-rule="evenodd" d="M57.327 18.5386C57.327 15.0548 54.484 12.2432 50.9925 12.2432C47.5009 12.2432 44.6579 15.0548 44.6579 18.5386C44.6579 20.6693 45.7213 22.5485 47.3461 23.6869L44.0648 29.8476H29.996C29.4437 29.8476 28.996 30.2953 28.996 30.8476C28.996 31.3999 29.4437 31.8476 29.996 31.8476H45.2655L49.146 24.5622C49.7304 24.739 50.3505 24.8341 50.9925 24.8341C54.484 24.8341 57.327 22.0224 57.327 18.5386ZM49.1036 22.4061C49.108 22.4082 49.1123 22.4103 49.1167 22.4124C49.6838 22.6825 50.3198 22.8341 50.9925 22.8341C53.3933 22.8341 55.327 20.904 55.327 18.5386C55.327 16.1732 53.3933 14.2432 50.9925 14.2432C48.5916 14.2432 46.6579 16.1732 46.6579 18.5386C46.6579 20.2361 47.6538 21.7095 49.1036 22.4061ZM59.6654 35.049C62.0663 35.049 64 36.979 64 39.3444C64 41.7098 62.0663 43.6399 59.6654 43.6399C57.2646 43.6399 55.3309 41.7098 55.3309 39.3444C55.3309 36.979 57.2646 35.049 59.6654 35.049ZM66 39.3444C66 35.8606 63.157 33.049 59.6654 33.049C56.5151 33.049 53.8927 35.338 53.4103 38.3444H30.3087C29.7564 38.3444 29.3087 38.7921 29.3087 39.3444C29.3087 39.8967 29.7564 40.3444 30.3087 40.3444H53.4103C53.8927 43.3509 56.5151 45.6399 59.6654 45.6399C63.157 45.6399 66 42.8282 66 39.3444ZM41.1189 47.1839H29.996C29.4437 47.1839 28.996 47.6316 28.996 48.1839C28.996 48.7362 29.4437 49.1839 29.996 49.1839H40.2717L46.9082 56.0357C46.162 57.0678 45.7222 58.3341 45.7222 59.7044C45.7222 63.1882 48.5652 65.9999 52.0567 65.9999C55.5483 65.9999 58.3913 63.1882 58.3913 59.7044C58.3913 56.2206 55.5483 53.409 52.0567 53.409C50.6612 53.409 49.3693 53.8581 48.3211 54.6198L41.1189 47.1839ZM52.0567 55.409C54.4576 55.409 56.3913 57.3391 56.3913 59.7044C56.3913 62.0698 54.4576 63.9999 52.0567 63.9999C49.6559 63.9999 47.7222 62.0698 47.7222 59.7044C47.7222 57.3391 49.6559 55.409 52.0567 55.409Z" fill="#B4804B"/>
<path fill-rule="evenodd" clip-rule="evenodd" d="M36.5801 14.6281C36.5801 6.54228 29.9789 0 21.8514 0H19.6722C11.5447 0 4.94342 6.54228 4.94342 14.6281V23.2447H8.7738e-05V50.8662C8.7738e-05 54.1912 2.71344 56.8741 6.04499 56.8741H35.2282C36.8701 56.8741 38.362 56.2221 39.4513 55.1648C39.8477 54.7801 39.8571 54.1471 39.4725 53.7507C39.0878 53.3544 38.4547 53.345 38.0584 53.7296C37.3287 54.4379 36.3314 54.8741 35.2282 54.8741H6.04499C3.8041 54.8741 2.00009 53.0728 2.00009 50.8662V25.2447H31.0232V15.8016C31.0232 10.6176 26.7918 6.4277 21.5875 6.4277H19.936C14.7318 6.4277 10.5003 10.6176 10.5003 15.8016V23.2447H6.94342V14.6281C6.94342 7.66071 12.6353 2 19.6722 2H21.8514C28.8882 2 34.5801 7.6607 34.5801 14.6281V24.2447H36.5801V14.6281ZM12.5003 23.2447V15.8016C12.5003 11.736 15.8224 8.4277 19.936 8.4277H21.5875C25.7011 8.4277 29.0232 11.736 29.0232 15.8016V23.2447H12.5003ZM20.6689 32.5586C23.1534 32.5586 25.1549 34.556 25.1549 37.0045C25.1549 39.4529 23.1534 41.4503 20.6689 41.4503C18.1843 41.4503 16.1828 39.4529 16.1828 37.0045C16.1828 34.556 18.1843 32.5586 20.6689 32.5586ZM27.1549 37.0045C27.1549 33.4376 24.2441 30.5586 20.6689 30.5586C17.0936 30.5586 14.1828 33.4376 14.1828 37.0045C14.1828 39.2766 15.364 41.2697 17.1457 42.4172V46.3753C17.1457 48.1587 18.6002 49.5919 20.3787 49.5919H20.9162C22.6947 49.5919 24.1492 48.1587 24.1492 46.3753V42.4445C25.9548 41.3015 27.1549 39.2948 27.1549 37.0045ZM22.1492 43.2815V46.3753C22.1492 47.0403 21.6041 47.5919 20.9162 47.5919H20.3787C19.6908 47.5919 19.1457 47.0403 19.1457 46.3753V43.2714C19.6344 43.3884 20.1445 43.4503 20.6689 43.4503C21.1779 43.4503 21.6735 43.3919 22.1492 43.2815Z" fill="#B4804B"/>
</svg>
