<svg width="463" height="244" viewBox="0 0 463 244" fill="none" xmlns="http://www.w3.org/2000/svg">
<path d="M276.523 178.556C273.155 168.482 271.745 159.569 271.706 148.123C271.356 135.824 272.836 131.053 275.968 122.288C279.444 112.565 284.438 107.968 299.876 91.4641C311.784 78.7348 313.568 77.4602 316.991 74.3712C320.982 70.7696 332.557 62.034 342.365 60.2103C371.831 54.7298 392.03 57.9853 414.315 71.8071C427.035 79.6962 437.319 90.0565 444.307 102.021C450.01 111.786 455.349 125.551 456.626 133.781C458.027 142.813 455.103 163.115 450.521 176.157C445.497 190.46 433.828 207.695 423.899 215.48C421.524 217.342 417.23 219.706 416.532 222.14C417.086 221.869 417.676 221.595 418.352 221.302C421.078 220.116 421.45 220.195 423.259 222.34C426.492 226.175 427.343 231.045 424.779 231.045C423.635 231.045 416.434 226.276 416.434 222.805C416.434 222.583 416.468 222.361 416.532 222.14C414.248 223.255 412.556 224.326 407.876 226.589C389.16 235.638 374.058 239.171 356.825 238.535C343.693 238.05 333.582 231.836 321.055 226.279C314.677 223.261 310.706 217.413 311.642 212.419C312.336 208.719 313.393 208.697 317.176 212.305C321.107 216.055 324.292 217.801 331.741 220.292C341.251 223.472 364.241 228.094 367.836 228.094C369.922 228.094 373.676 227.677 376.178 227.167C393.633 223.612 423.463 204.617 432.506 191.301C444.578 173.525 449.169 144.864 443.228 124.366C438.874 109.339 426.27 92.3895 412.499 83.0409C407.738 79.8078 398.287 75.147 391.941 72.9013C368.934 64.7601 351.679 65.8927 328.495 77.0651C303.201 89.255 290.447 105.359 283.865 133.415C282.375 139.765 282.216 141.485 282.228 151.074C282.24 160.8 282.377 162.195 283.858 167.599C286.953 178.896 292.061 189.206 299.368 198.905C305.39 206.898 305.873 207.967 306.178 213.975C306.377 217.881 304.828 216.918 303.991 217.054C303.155 217.19 299.515 212.411 295.214 208.028C284.217 196.824 280.862 191.533 276.523 178.556Z" fill="#B4804B"/>
<path d="M290.761 208.262C297.021 216.572 301.859 218.979 309.274 222.193C313.361 226.091 316.672 227.907 324.417 230.497C334.302 233.803 358.203 238.608 361.941 238.608C364.11 238.608 368.013 238.174 370.614 237.644C388.76 233.947 419.772 214.2 429.173 200.357C441.723 181.877 446.496 152.081 440.32 130.77C435.793 115.148 422.69 97.527 408.374 87.8079C403.424 84.4468 393.599 79.6013 387.001 77.2667C363.083 68.803 345.144 69.9805 321.042 81.5955C294.746 94.2682 281.486 111.01 274.644 140.177C273.095 146.779 272.929 148.567 272.942 158.536C272.954 168.648 273.097 170.098 274.637 175.716C277.854 187.461 283.165 198.179 290.761 208.262Z" fill="#1E162C"/>
<path d="M286.411 34.2075C288.51 32.5117 290.017 30.9659 290.515 29.5071C289.412 30.2453 288.397 30.8471 287.672 31.0509C285.539 31.6505 282.608 33.2591 281.108 31.0509C279.341 28.4503 279.176 25.0647 280.775 24.2087C283.485 22.7586 288.592 24.2641 290.257 27.0036C290.752 27.8164 290.809 28.6466 290.515 29.5071C291.688 28.722 292.96 27.7826 294.086 27.0036C295.104 26.3596 296.215 25.4275 298.888 24.1434C300.767 24.3468 302.402 24.6161 304.736 24.3324C309.395 23.7664 312.276 26.4275 310.288 29.4609C309.804 30.2005 307.827 32.1511 305.896 33.796C303.966 35.4403 300.933 38.1949 299.158 39.916C296.184 42.7988 295.929 43.2411 295.929 45.5237C295.929 47.4233 296.469 48.9143 298.241 51.9119C300.67 56.0186 301.111 58.2194 299.818 59.7775C298.239 61.6794 283.201 71.1234 275.867 74.8192C272.094 76.7199 270.731 76.5413 269.479 73.9827C267.757 70.4628 266.184 63.2661 266.122 58.6214C266.071 54.7863 266.291 53.6592 267.654 50.7832C269.753 46.3545 275.892 40.2659 281.092 37.4559C283.248 36.2913 285.641 34.8295 286.411 34.2075Z" fill="#B4804B"/>
<path d="M431.929 64.0152L421.19 57.2736C420.61 56.9247 419.946 56.5227 419.212 56.0765C420.702 51.8867 416.454 46.7576 408.05 42.4194C402.197 39.3976 397.124 34.8078 397.124 32.5329C397.124 30.2173 400.135 27.1771 403.555 26.0415C407.534 24.72 410.644 25.1375 420.569 28.3272C425.082 29.7774 427.939 30.6112 429.101 30.9643C429.101 30.9643 431.373 31.7964 432.799 31.6993C431.685 30.8561 430.676 30.1076 429.828 29.4945C427.552 26.7907 425.902 23.9018 428.683 21.1209C430.445 19.3596 431.35 18.8887 432.973 18.8887C437.842 18.8887 439.377 24.4049 435.924 29.4945C435.141 30.6474 434.656 31.041 433.421 31.5673C433.246 31.6419 433.034 31.6832 432.799 31.6993C439.624 36.8691 450.345 45.5964 451.739 48.4768C453.595 52.3111 453.924 58.4639 452.617 64.8973C451.505 70.3658 450.541 72.6211 449.075 73.1835C447.761 73.6878 444.899 72.1576 431.929 64.0152Z" fill="#B4804B"/>
<path d="M360.344 157.151C360.344 157.151 358.315 160.856 356.805 162.587C353.014 166.559 346.686 170.747 336.371 176.111C327.341 180.806 322.418 182.509 317.874 182.509C314.798 182.509 314.224 182.299 312.633 180.597C310.075 177.858 309.771 176.04 311.552 174.131C314.95 170.487 323.259 167.552 354.94 158.804L358.218 157.899C357.541 151.913 356.365 90.2396 356.947 89.1339C358.369 86.4317 361.689 87.4386 363.287 91.0575C365.647 96.4005 366.521 111.185 365.496 128.463C364.72 141.557 363.643 148.933 361.797 153.791C361.132 155.541 360.344 157.151 360.344 157.151Z" fill="#B4804B"/>
<path d="M0 239.047C99.3783 239.047 288.329 238.385 295.963 238.855C297.664 238.855 298.436 235.012 299.57 231.53C302.024 223.995 302.294 222.411 301.486 220.287C301.111 219.3 297.146 214.766 292.674 210.209C281.242 198.561 277.754 193.061 273.243 179.569C269.742 169.096 268.275 159.83 268.235 147.931C267.871 135.145 269.41 130.184 272.666 121.073C276.279 110.964 281.471 106.185 297.521 89.0275C309.901 75.7939 312.548 72.591 312.548 70.8466C312.548 68.0119 307.039 70.3834 303.153 74.0581C302.011 75.1373 298.496 79.583 294.714 84.3076C284.3 97.081 281.154 101.606 279.455 101.606C277.672 101.606 277.854 100.4 280.409 95.3013C285.832 84.4797 293.527 74.4569 302.24 66.8664C327.957 47.3155 337.837 46.1809 359.487 46.1189C375.334 45.2219 380.001 46.403 395.325 54.1629C401.537 57.3087 407.205 59.8826 407.92 59.8826C409.499 59.8826 411.097 58.9463 411.948 57.2124C414.19 52.6384 409.662 46.8785 400.29 42.0405C394.045 38.8161 388.632 33.9186 388.632 31.4913C388.632 29.0204 391.845 25.7764 395.493 24.5646C399.739 23.1546 403.058 23.6001 413.648 27.0036C418.464 28.551 421.513 29.4407 422.753 29.8174C422.753 29.8174 426.043 31.0226 427.362 30.4609C428.68 29.8993 429.197 29.4794 430.032 28.2491C433.717 22.8184 432.08 16.9323 426.884 16.9323C425.152 16.9323 424.186 17.4349 422.306 19.3142C419.339 22.2815 421.1 25.3641 423.527 28.2491C429.984 32.9148 445.178 44.9292 446.908 48.5039C448.888 52.5952 449.239 59.1605 447.844 66.0251C446.658 71.8602 445.63 74.2667 444.065 74.8668C442.663 75.4049 439.609 73.7721 425.77 65.0839L414.31 57.8904C405.652 52.675 379.223 36.3244 377.712 34.904C375.177 32.5196 374.993 32.1447 375.334 30.0426C375.877 26.6943 378.664 23.6688 383.527 21.1458C389.618 17.9859 402.237 19.9309 408.909 21.1458C411.731 21.66 424.448 26.7496 414.606 16.9323C409.251 11.5906 401.229 7.18936 399.363 5.95055C395.179 3.17351 376.317 2 366.67 2C356.038 2.00042 331.262 4.31711 320.567 8.30129C313.781 10.8289 308.555 15.8377 306.679 19.4652L305.239 21.998C307.664 22.2158 308.266 22.3493 311.156 21.998C316.261 21.3777 319.419 24.294 317.24 27.6184C316.71 28.4289 314.544 30.5666 312.427 32.3693C310.312 34.1714 306.988 37.1901 305.043 39.0763C301.783 42.2356 301.504 42.7203 301.504 45.2219C301.504 47.3037 302.095 48.9377 304.038 52.2228C306.7 56.7233 307.183 59.1353 305.766 60.8429C304.036 62.9272 287.556 73.277 279.518 77.3272C275.383 79.4103 273.889 79.2146 272.517 76.4105C270.629 72.553 268.907 64.6661 268.838 59.5758C268.782 55.3729 269.023 54.1377 270.517 50.9858C272.817 46.1324 279.545 39.4598 285.244 36.3802C287.607 35.104 290.23 33.5019 291.073 32.8203C294.73 29.8655 296.748 27.326 295.288 24.9254C293.463 21.9232 287.866 20.2733 284.897 21.8624C283.145 22.8006 283.325 26.5109 285.261 29.3609C286.906 31.7809 290.117 30.0181 292.455 29.3609C294.095 28.9 297.089 26.5819 299.485 24.9254C301.081 23.9148 302.888 22.2566 309.632 19.7456C317.596 16.7802 322.721 17.1318 331.262 21.2298C341.304 26.0476 345.408 31.7876 341.953 36.1796C339.675 39.0763 336.438 39.7782 333.173 42.0405C315.008 54.6237 307.64 59.1243 307.64 61.3503C307.64 62.8649 308.764 65.3581 309.7 66.2939C311.901 68.4948 313.794 68.2806 320.241 65.1023C326.295 61.9479 331.497 58.4315 341.693 56.5356C372.327 50.8379 393.326 54.2224 416.494 68.5917C429.718 76.7934 440.409 87.5641 447.674 100.003C453.603 110.154 459.153 124.465 460.481 133.021C461.937 142.41 458.897 163.517 454.134 177.076C448.911 191.945 436.78 209.863 426.457 217.956C423.764 220.068 418.697 222.801 418.697 225.571C418.697 229.18 426.182 234.138 427.372 234.138C430.038 234.138 429.153 229.075 425.792 225.088C423.912 222.858 423.525 222.776 420.691 224.009C417.096 225.571 415.848 226.581 409.8 229.506C390.342 238.913 374.642 242.586 356.726 241.925C343.074 241.421 335.389 239.611 322.366 233.834C313.289 229.807 313.531 229.809 309.855 233.761C303.785 240.288 299.722 242.817 299.166 240.755C298.611 238.692 301.857 234.753 301.857 234.753C301.857 234.753 305.394 229.39 306.367 227.518C306.98 226.335 306.878 225.759 305.718 223.883C304.655 222.163 304.28 220.452 304.073 216.392C303.755 210.145 303.253 209.035 296.993 200.725C289.397 190.642 284.086 179.923 280.869 168.179C279.329 162.561 279.186 161.11 279.174 150.999C279.161 141.03 279.327 139.242 280.876 132.64C287.718 103.473 300.978 86.7309 327.274 74.0581C351.376 62.4431 369.315 61.2656 393.234 69.7293C399.831 72.064 409.656 76.9094 414.606 80.2705C428.923 89.9896 442.026 107.611 446.553 123.233C452.728 144.543 447.955 174.34 435.405 192.819C426.005 206.663 394.992 226.41 376.846 230.107C374.245 230.636 370.342 231.07 368.173 231.07C364.436 231.07 340.535 226.265 330.649 222.959C322.904 220.369 319.593 218.554 315.506 214.656C311.573 210.904 310.475 210.927 309.754 214.774C308.78 219.966 312.909 226.046 319.539 229.183C326.42 232.438 344.166 235.979 353.603 235.979C358.651 235.979 361.708 234.919 363.191 232.656C365.255 229.506 364.702 226.788 364.702 222.911C364.702 217.499 364.349 215.043 362.595 208.248C359.799 197.416 358.934 190.509 359.383 182.593C359.978 172.095 361.893 164.944 366.67 155.385C367.657 153.411 368.322 151.653 368.149 151.479C367.975 151.305 362.218 152.701 361.134 153.079L357.856 153.984C326.175 162.732 317.866 165.667 314.468 169.311C312.687 171.22 312.991 173.038 315.549 175.777C317.14 177.479 317.714 177.689 320.791 177.689C325.334 177.689 330.257 175.986 339.287 171.291C349.602 165.927 355.93 161.739 359.721 157.767C361.231 156.036 363.26 152.331 363.26 152.331C363.26 152.331 364.048 150.721 364.713 148.971C366.559 144.113 367.636 136.737 368.413 123.644C369.437 106.365 368.563 91.5806 366.203 86.2376C364.605 82.6187 361.285 81.6118 359.863 84.314C359.281 85.4197 360.062 143.598 360.739 149.584" stroke="#EFEDF1" stroke-width="3"/>
</svg>
