<svg width="25" height="26" viewBox="0 0 25 26" fill="none" xmlns="http://www.w3.org/2000/svg">
<path fill-rule="evenodd" clip-rule="evenodd" d="M0.647207 0.942135C0.72789 1.0573 1.70354 2.4769 2.81533 4.09677C4.92668 7.17299 8.40923 12.2455 8.64963 12.5947C9.63533 14.0265 9.8565 14.3577 9.84572 14.3857C9.83874 14.4038 9.59235 14.6982 9.29817 15.04C8.61994 15.8281 8.09693 16.4365 7.38105 17.2704C7.06904 17.6339 6.80154 17.9444 6.7866 17.9605C6.77166 17.9766 6.70473 18.0547 6.63785 18.1339C6.57098 18.2131 6.5038 18.2911 6.48856 18.3072C6.47335 18.3233 6.24271 18.5919 5.97604 18.904C5.70935 19.216 5.48403 19.4775 5.4753 19.4849C5.46654 19.4923 5.23587 19.7598 4.96264 20.0794C4.68941 20.3989 4.38613 20.7521 4.28867 20.8643C4.19118 20.9765 4.05065 21.1397 3.97634 21.2269C3.90203 21.3141 3.71965 21.5268 3.57103 21.6995C1.22312 24.428 0.665878 25.0755 0.589924 25.1633L0.5 25.2673L1.56266 25.2672L2.62532 25.2671L2.86083 24.9902C3.11474 24.6917 3.16402 24.6345 3.37441 24.3937C3.45012 24.3071 3.70162 24.0145 3.93335 23.7435C4.16505 23.4725 4.87712 22.6436 5.51575 21.9015C7.59429 19.4861 7.99122 19.0246 8.75658 18.1339C9.17158 17.6509 9.76098 16.9639 10.0664 16.6072C10.3717 16.2506 10.6656 15.9118 10.7194 15.8544L10.8172 15.7501L12.7444 18.5565C13.8045 20.0999 15.2746 22.2412 16.0116 23.3148L17.3514 25.2667L20.9257 25.267L24.5 25.2673L24.2995 24.9768C24.1892 24.8171 23.5816 23.9325 22.9492 23.0111C22.3169 22.0897 21.6741 21.1539 21.5209 20.9315C21.3677 20.7092 21.1506 20.3931 21.0384 20.229C20.9263 20.065 20.4711 19.4018 20.0271 18.7554C19.583 18.1089 18.5391 16.589 17.7074 15.3778C16.8756 14.1666 15.8807 12.7182 15.4965 12.1592C15.1123 11.6002 14.798 11.1346 14.798 11.1246C14.798 11.1147 15.2449 10.5875 15.791 9.95315C16.3372 9.31882 16.857 8.71343 16.9461 8.60786C17.0353 8.50231 17.3271 8.16243 17.5946 7.85261C18.145 7.21512 18.7768 6.48024 19.8371 5.24419C20.2381 4.77658 20.6044 4.35144 20.6509 4.29942C20.7415 4.19796 21.1928 3.67285 22.3342 2.34044C22.7288 1.87974 23.0641 1.48927 23.0792 1.47276C23.1125 1.43645 23.3215 1.19545 23.551 0.928625L23.7196 0.732727L22.6566 0.732916L21.5937 0.733078L21.0803 1.33134C20.7979 1.66037 20.4878 2.02298 20.3912 2.13717C20.2946 2.25136 19.9967 2.59835 19.7292 2.9083C19.1414 3.58943 18.4609 4.38086 17.4867 5.51632C17.0855 5.9839 16.7251 6.40296 16.6858 6.44755C16.6466 6.49213 16.3687 6.81435 16.0684 7.16359C15.7681 7.51283 15.496 7.82897 15.4638 7.86612C15.4316 7.90327 15.1506 8.23157 14.8394 8.59567C14.5282 8.95977 14.2667 9.26375 14.2582 9.27118C14.2435 9.28402 14.0252 9.53944 13.9175 9.66973C13.8899 9.70316 13.8588 9.73053 13.8483 9.73053C13.8303 9.73053 13.7434 9.60783 13.1887 8.79832C12.7524 8.16175 9.48402 3.40278 9.1996 2.99001C9.04642 2.76766 8.78733 2.39002 8.62385 2.15079C8.46038 1.91157 8.17464 1.49465 7.98887 1.22434L7.65112 0.732835L4.0758 0.732781L0.500487 0.732727L0.647207 0.942135ZM3.4121 2.36049C3.43045 2.3914 8.52726 9.69019 10.1625 12.0273C10.2815 12.1973 10.1952 12.0738 13.1649 16.3235C15.1808 19.2082 15.6906 19.9381 16.0923 20.5144C16.1606 20.6125 16.6969 21.3812 17.2839 22.2227L18.3512 23.7526L19.9686 23.7533C21.2517 23.754 21.5832 23.7472 21.5728 23.7204C21.5612 23.6903 20.9893 22.8696 18.1225 18.7689C17.6966 18.1595 17.2887 17.5759 17.2163 17.4719C17.1438 17.3679 16.5237 16.4802 15.8384 15.4994C15.153 14.5185 13.906 12.7337 13.0672 11.5331C12.2284 10.3325 11.1281 8.75787 10.6221 8.03397C7.63066 3.75383 6.91187 2.72519 6.78511 2.5431L6.64404 2.34044L5.018 2.33347C3.71759 2.3279 3.396 2.33331 3.4121 2.36049Z" fill="white"/>
</svg>
